<svg xmlns="http://www.w3.org/2000/svg" xmlns:xlink="http://www.w3.org/1999/xlink" width="270.979" height="73.473" viewBox="0 0 270.979 73.473">
  <defs>
    <clipPath id="clip-path">
      <rect id="Rectangle_947" data-name="Rectangle 947" width="270.979" height="73.473" fill="#fff"/>
    </clipPath>
  </defs>
  <g id="Group_1602" data-name="Group 1602" transform="translate(9839.45 3377.63)">
    <path id="Path_3727" data-name="Path 3727" d="M85,345.8a.8.8,0,1,1,.8-.8c-.1.4-.4.8-.8.8m0-1.4a.669.669,0,0,0-.7.6.684.684,0,0,0,.7.7c.4,0,.6-.3.6-.7a.576.576,0,0,0-.6-.6m.2,1-.2-.3h-.2v.3h-.1v-.9H85a.319.319,0,0,1,.3.3.37.37,0,0,1-.2.3l.2.3h-.1Zm-.2-.7h-.2v.3H85a.215.215,0,0,0,.2-.2c0-.1-.1-.1-.2-.1" transform="translate(-9862.026 -3689.267)" fill="#eb1000"/>
    <g id="Group_1599" data-name="Group 1599" transform="translate(-9839.45 -3377.63)" clip-path="url(#clip-path)">
      <path id="Path_5564" data-name="Path 5564" d="M2.846,21.7A7.826,7.826,0,0,1,0,15.273H7.5q.094,2.982,2.612,2.986c1.4,0,2.1-.5,2.1-1.481a1.3,1.3,0,0,0-.834-1.177,17.1,17.1,0,0,0-2.768-.975A31.748,31.748,0,0,1,4.6,13.176,7.443,7.443,0,0,1,1.785,10.9,6.412,6.412,0,0,1,.593,6.861,5.814,5.814,0,0,1,1.754,3.29,7.517,7.517,0,0,1,5.029.858,12.708,12.708,0,0,1,9.886,0a12.936,12.936,0,0,1,4.6.8,7.828,7.828,0,0,1,3.532,2.627,7.81,7.81,0,0,1,1.427,4.764h-7.2A3.011,3.011,0,0,0,11.7,6.362a2.028,2.028,0,0,0-1.754-.741,1.929,1.929,0,0,0-1.294.39,1.372,1.372,0,0,0-.437,1.084,1.3,1.3,0,0,0,.85,1.185,18.866,18.866,0,0,0,2.776.982,30.338,30.338,0,0,1,4.015,1.4,7.427,7.427,0,0,1,2.776,2.245,6.3,6.3,0,0,1,1.2,4,5.994,5.994,0,0,1-1.076,3.454,7.416,7.416,0,0,1-3.274,2.549,13.282,13.282,0,0,1-5.372.975A11.423,11.423,0,0,1,2.844,21.7" fill="#fff"/>
      <path id="Path_5565" data-name="Path 5565" d="M13.282.063a12.591,12.591,0,0,1,5.091.982,8.087,8.087,0,0,1,3.516,2.83,7.488,7.488,0,0,1,1.279,4.366,7.53,7.53,0,0,1-1.279,4.374,8.127,8.127,0,0,1-3.516,2.822,12.591,12.591,0,0,1-5.091.982H11.388v6.549H3.529V.063ZM12.565,10.37a2.875,2.875,0,0,0,1.918-.577,1.934,1.934,0,0,0,.663-1.551,1.945,1.945,0,0,0-.663-1.551,2.875,2.875,0,0,0-1.918-.577H11.388V10.37Z" transform="translate(23.984 0.428)" fill="#fff"/>
      <path id="Path_5566" data-name="Path 5566" d="M14.851,14.292V16.9h9.161v6.066H6.992V.063h16.7V6.105H14.851V8.569h8.514v5.723Z" transform="translate(47.522 0.429)" fill="#fff"/>
      <path id="Path_5567" data-name="Path 5567" d="M16.429,22.477a11.268,11.268,0,0,1-4.639-4.116,11.631,11.631,0,0,1-1.754-6.424A11.623,11.623,0,0,1,11.79,5.52,11.268,11.268,0,0,1,16.429,1.4a14.021,14.021,0,0,1,6.2-1.4A13.587,13.587,0,0,1,28.3,1.185a11.725,11.725,0,0,1,4.436,3.508,12.1,12.1,0,0,1,2.355,5.45H26.985a4.247,4.247,0,0,0-1.536-2.277A4.461,4.461,0,0,0,22.7,7.025a4.456,4.456,0,0,0-3.368,1.349,4.964,4.964,0,0,0-1.279,3.563A4.939,4.939,0,0,0,19.329,15.5,4.422,4.422,0,0,0,22.7,16.84a4.638,4.638,0,0,0,2.822-.826,4.289,4.289,0,0,0,1.536-2.277h8.108a12.274,12.274,0,0,1-2.355,5.45,11.621,11.621,0,0,1-4.452,3.5,13.792,13.792,0,0,1-5.73,1.193,14.021,14.021,0,0,1-6.2-1.4" transform="translate(68.209)" fill="#fff"/>
      <rect id="Rectangle_945" data-name="Rectangle 945" width="7.859" height="22.906" transform="translate(111.223 0.491)" fill="#fff"/>
      <path id="Path_5568" data-name="Path 5568" d="M41.548,22.968H33.736L32.5,19.046H25.1l-1.25,3.922h-7.7L24.5.062h8.709ZM26.532,13.316h4.514l-2.261-7.04Z" transform="translate(109.796 0.421)" fill="#fff"/>
      <path id="Path_5569" data-name="Path 5569" d="M36.473,22.969h-16.2V.063h7.851V16.092h8.35Z" transform="translate(137.777 0.426)" fill="#fff"/>
      <rect id="Rectangle_946" data-name="Rectangle 946" width="7.859" height="22.906" transform="translate(181.773 0.491)" fill="#fff"/>
      <path id="Path_5570" data-name="Path 5570" d="M42.7,4.639,34.87,16.42h8.482v6.549h-18V18.392L33.171,6.6H25.842V.063H42.7Z" transform="translate(172.294 0.427)" fill="#fff"/>
      <path id="Path_5571" data-name="Path 5571" d="M36.483,14.292V16.9h9.161v6.066H28.624V.063h16.7V6.105H36.483V8.569H45v5.723Z" transform="translate(194.539 0.429)" fill="#fff"/>
      <path id="Path_5572" data-name="Path 5572" d="M31.857,22.969V.063h9.652A15.241,15.241,0,0,1,48.284,1.49a10.751,10.751,0,0,1,4.569,4.023,11.141,11.141,0,0,1,1.614,6,11.141,11.141,0,0,1-1.614,6,10.751,10.751,0,0,1-4.569,4.023,15.349,15.349,0,0,1-6.775,1.427Zm9.325-6.385a5.439,5.439,0,0,0,3.828-1.318,4.819,4.819,0,0,0,1.442-3.75,4.831,4.831,0,0,0-1.442-3.75A5.443,5.443,0,0,0,41.181,6.44H39.708V16.584Z" transform="translate(216.513 0.428)" fill="#fff"/>
      <path id="Path_5573" data-name="Path 5573" d="M5.159,22.808,3.81,26.987a.292.292,0,0,1-.3.218H.232c-.218,0-.257-.125-.218-.3L5.682,10.56a5.214,5.214,0,0,0,.3-1.746A.2.2,0,0,1,6.165,8.6h4.53c.133,0,.218.047.218.179L17.361,26.9c.047.133.047.265-.125.265H13.525c-.172,0-.257-.047-.3-.218L11.79,22.721H5.159Zm5.489-3.532c-.561-1.871-1.7-5.317-2.222-7.321H8.387c-.437,1.918-1.481,5.013-2.222,7.321Zm6.845,1.045c0-4.054,3.048-7.453,8.241-7.453.218,0,.522.047.912.047V7.332a.2.2,0,0,1,.218-.218h3.571c.133,0,.179.047.179.179V24.024a15.375,15.375,0,0,0,.133,2.1.237.237,0,0,1-.218.257,14.231,14.231,0,0,1-5.582,1.138c-4.226,0-7.453-2.4-7.453-7.2m9.153-4.054a2.506,2.506,0,0,0-1.045-.133A3.8,3.8,0,0,0,21.547,20.1c0,2.791,1.614,4.007,3.789,4.007a4.562,4.562,0,0,0,1.357-.172V16.267ZM46.566,20.1c0,4.444-2.877,7.414-6.978,7.414-4.834,0-7.017-3.664-7.017-7.329,0-4.007,2.705-7.36,7.064-7.36,4.576.039,6.931,3.438,6.931,7.274m-9.979.047c0,2.479,1.177,4.093,3.048,4.093,1.661,0,2.877-1.435,2.877-4.007,0-2.222-.912-4.054-3.048-4.054-1.614-.047-2.877,1.435-2.877,3.968M52.273,7.114c.218,0,.3.047.3.218v5.8a8.409,8.409,0,0,1,2.4-.3,6.482,6.482,0,0,1,6.8,6.752c0,5.317-4.187,7.937-8.5,7.937a15.409,15.409,0,0,1-4.443-.655.368.368,0,0,1-.18-.3V7.293c0-.133.047-.218.218-.218h3.4Zm1.965,9.067a5.547,5.547,0,0,0-1.661.218v7.672a4.424,4.424,0,0,0,1.053.133,3.907,3.907,0,0,0,4.093-4.272c0-2.526-1.528-3.75-3.485-3.75m12.809,5.013c.133,1.614,1.271,2.963,4.054,2.963a9.22,9.22,0,0,0,3.493-.655c.086-.039.172-.039.172.133v2.7c0,.218-.047.257-.218.343a9.781,9.781,0,0,1-4.358.834c-5.317,0-7.188-3.664-7.188-7.2,0-3.922,2.393-7.492,6.837-7.492,4.272,0,5.972,3.306,5.972,6.144a9.167,9.167,0,0,1-.133,1.918c-.039.133-.086.218-.218.218-.343.039-1.435.125-2.916.125h-5.5Zm3.664-2.744c.912,0,1.31-.047,1.442-.047v-.218a2.278,2.278,0,0,0-2.4-2.222,2.654,2.654,0,0,0-2.705,2.487Zm29.33,3.922c-.608-3.446-1.957-9.114-2.963-13.511-.039-.179-.086-.218-.257-.218H93.11c-.172,0-.3.039-.3.218-1.918,8.5-2.7,11.507-3,13.464h-.047c-.265-1.653-.655-4.007-2.791-13.464-.039-.218-.172-.218-.3-.218h-3.75c-.125,0-.218.086-.172.257L87.4,26.948c.086.172.179.257.351.257h3.4c.218,0,.257-.125.3-.257.912-3.579,2.791-10.767,3.313-13.776h.047c.608,2.963,2.222,10.112,3.048,13.862a.286.286,0,0,0,.3.218h3.485c.133,0,.218-.047.265-.218l4.709-18.088c.039-.218-.047-.265-.218-.265h-3.446c-.218,0-.3.094-.3.218-1.7,8.155-2.355,11.9-2.62,13.472m19.92-2.269c0,4.444-2.877,7.414-6.97,7.414-4.842,0-7.017-3.664-7.017-7.329,0-4.007,2.7-7.36,7.056-7.36,4.576.039,6.931,3.438,6.931,7.274m-9.979.047c0,2.479,1.177,4.093,3.048,4.093,1.661,0,2.877-1.435,2.877-4.007,0-2.222-.912-4.054-3.048-4.054-1.653-.047-2.877,1.435-2.877,3.968m11.983-7.017c-.125,0-.172.039-.172.218a35.4,35.4,0,0,1,.133,3.836v9.761c0,.172.039.257.257.257h3.4c.218,0,.265-.039.265-.218l.039-9.02a5.743,5.743,0,0,1,4.272-1.216c.218,0,.265-.047.265-.218V13.039c0-.172-.047-.211-.218-.211a5.792,5.792,0,0,0-4.491,2.128,5.984,5.984,0,0,0-.3-1.567.307.307,0,0,0-.351-.257Zm18.828,0a.409.409,0,0,0-.39.218c-.608.741-3.228,3.922-4.709,5.66V7.379c0-.179-.125-.218-.257-.218h-3.446c-.218,0-.257.133-.257.218V26.987c0,.218.039.312.257.312h3.446c.218,0,.257-.094.257-.312V21.023c1.357,1.739,3.8,4.966,4.662,6.058.133.125.179.218.351.218h4.5c.172,0,.265-.179.133-.265-1.746-2.136-4.444-5.4-6.1-7.453a.09.09,0,0,1,0-.133c1.092-1.177,4.491-4.92,5.364-5.972.133-.125.039-.257-.179-.257H140.8Zm6.978,3.313V26.987c0,.179.086.265.257.265h3.446a.234.234,0,0,0,.265-.265V16.446h2.394c.218-.047.218-.047.218-.218V13.351c0-.133-.047-.218-.218-.218h-2.394v-.787c0-1.567.608-2.136,1.653-2.136a6.025,6.025,0,0,1,.873.047c.133.039.218-.047.218-.179V7.293a.345.345,0,0,0-.179-.312,4.538,4.538,0,0,0-1.481-.218,4.473,4.473,0,0,0-4.4,2.659,7.323,7.323,0,0,0-.616,3.189v.429h-1.653c-.133,0-.218.047-.218.218v2.877c0,.133.047.218.218.218h1.614Zm7.929-3.313c-.125,0-.172.039-.172.218a35.4,35.4,0,0,1,.133,3.836v9.761c0,.172.039.257.257.257h3.4c.218,0,.265-.039.265-.218l.039-9.02a5.743,5.743,0,0,1,4.272-1.216c.218,0,.265-.047.265-.218V13.039c0-.172-.047-.211-.218-.211a5.779,5.779,0,0,0-4.491,2.128,6.323,6.323,0,0,0-.3-1.567.307.307,0,0,0-.351-.257Zm23.015,6.97c0,4.444-2.877,7.414-6.97,7.414-4.842,0-7.017-3.664-7.017-7.329,0-4.007,2.7-7.36,7.056-7.36,4.576.039,6.931,3.438,6.931,7.274m-9.979.047c0,2.479,1.177,4.093,3.048,4.093,1.661,0,2.877-1.435,2.877-4.007,0-2.222-.912-4.054-3.048-4.054-1.614-.047-2.877,1.435-2.877,3.968m11.546,6.837c0,.179.047.265.265.265h3.438c.179,0,.265-.086.265-.218V17.187a3.506,3.506,0,0,1,2.355-.873c1.481,0,2.222.912,2.222,2.612v8.061c0,.179.086.265.3.265h3.4c.218,0,.265-.086.265-.265V18.536c0-4.576-2.573-5.707-4.756-5.707a6.2,6.2,0,0,0-4.007,1.435,3.722,3.722,0,0,0-.218-.912c-.039-.133-.133-.218-.351-.218H180.5c-.172,0-.218.086-.218.218.047.608.133,2.089.133,3.048V26.987Zm22.274-2.612c0-.172-.086-.218-.218-.218a6.75,6.75,0,0,1-.959.133c-1.177,0-1.528-.569-1.528-1.832V16.4H202.5c.133-.047.218-.047.218-.218V13.3c0-.172-.039-.218-.218-.218h-2.6c0-1.4.047-3.048.133-3.922,0-.218-.086-.218-.218-.172l-3.313.429a.409.409,0,0,0-.265.265,29.01,29.01,0,0,0-.257,3.446h-1.75c-.218,0-.257.039-.257.257v2.791c0,.172.039.218.218.265h1.7v7.017c0,2.83,1.435,4.054,3.922,4.054a7.437,7.437,0,0,0,2.526-.4.328.328,0,0,0,.218-.351Z" transform="translate(0.002 42.964)" fill="#fff"/>
    </g>
  </g>
</svg>
