<svg xmlns="http://www.w3.org/2000/svg" width="345.437" height="94.89" viewBox="0 0 345.437 94.89">
  <g id="Group_1601" data-name="Group 1601" transform="translate(10337.999 3388.664)">
    <path id="Path_3729" data-name="Path 3729" d="M121.077,32.867l-1.572,4.715a.35.35,0,0,1-.362.26H115.4c-.226,0-.294-.124-.26-.317l6.46-18.632a5.721,5.721,0,0,0,.328-1.967.2.2,0,0,1,.192-.226h5.167c.158,0,.226,0,.26.192l7.326,20.667c.068.158,0,.283-.158.283h-4.206a.317.317,0,0,1-.35-.226l-1.605-4.748Zm6.263-4.036c-.644-2.137-1.945-6.037-2.555-8.332h0c-.509,2.159-1.673,5.721-2.51,8.332Z" transform="translate(-10335.492 -3396.319)" fill="#fff"/>
    <path id="Path_3730" data-name="Path 3730" d="M133.46,30.174c0-4.624,3.46-8.491,9.361-8.491a8.441,8.441,0,0,1,1.074.057V15.386a.2.2,0,0,1,.226-.226h4.059c.17,0,.2.057.2.192V34.425a17.462,17.462,0,0,0,.124,2.363c0,.158,0,.226-.226.294a16.348,16.348,0,0,1-6.3,1.289C137.146,38.371,133.46,35.658,133.46,30.174Zm10.435-4.59a3.5,3.5,0,0,0-1.2-.158,4.308,4.308,0,0,0-4.613,4.522c0,3.188,1.832,4.579,4.3,4.579a4.647,4.647,0,0,0,1.515-.192Z" transform="translate(-10333.099 -3396.52)" fill="#fff"/>
    <path id="Path_3731" data-name="Path 3731" d="M165.136,29.195c0,5.065-3.29,8.423-7.914,8.423-5.529,0-7.982-4.172-7.982-8.332,0-4.579,3.075-8.355,8.038-8.355C162.457,20.93,165.136,24.831,165.136,29.195Zm-11.362,0c0,2.849,1.323,4.658,3.482,4.658,1.877,0,3.3-1.617,3.3-4.59,0-2.521-1.04-4.613-3.493-4.613-1.865.023-3.29,1.7-3.29,4.568Z" transform="translate(-10331.038 -3395.766)" fill="#fff"/>
    <path id="Path_3732" data-name="Path 3732" d="M170.036,15.16c.26,0,.328,0,.328.26v6.614a10.367,10.367,0,0,1,2.713-.35,7.383,7.383,0,0,1,7.745,7.677c0,6.037-4.771,9.045-9.689,9.045a16.812,16.812,0,0,1-5.11-.814.385.385,0,0,1-.192-.317V15.386c0-.17.068-.226.226-.226ZM172.3,25.482a6.784,6.784,0,0,0-1.9.26v8.751a4.76,4.76,0,0,0,1.2.136,4.454,4.454,0,0,0,4.6-4.85c0-2.94-1.673-4.3-3.934-4.3Z" transform="translate(-10328.871 -3396.52)" fill="#fff"/>
    <path id="Path_3733" data-name="Path 3733" d="M185.59,30.446c.158,1.843,1.447,3.392,4.613,3.392a9.893,9.893,0,0,0,3.968-.746c.1-.068.192,0,.192.158v3.075c0,.226,0,.317-.226.384a10.842,10.842,0,0,1-4.941.938c-6.06,0-8.2-4.172-8.2-8.174,0-4.454,2.747-8.513,7.812-8.513,4.873,0,6.784,3.776,6.784,6.964a9.95,9.95,0,0,1-.17,2.171.249.249,0,0,1-.249.249,28.817,28.817,0,0,1-3.335.136Zm4.194-3.132a10.175,10.175,0,0,0,1.617-.068V27.02a2.634,2.634,0,0,0-2.747-2.544,3.053,3.053,0,0,0-3.132,2.838Z" transform="translate(-10326.891 -3395.762)" fill="#fff"/>
    <path id="Path_3734" data-name="Path 3734" d="M116.37,65.628a.543.543,0,0,1-.226-.52V61.275c0-.17.136-.26.26-.17a11.125,11.125,0,0,0,5.845,1.685c2.453,0,3.392-.837,3.392-1.967s-.746-1.775-2.939-2.713l-1.617-.678c-3.968-1.685-5.065-3.686-5.065-6.2,0-3.493,2.646-6.263,7.778-6.263a11.95,11.95,0,0,1,5.031.837c.17.09.192.226.192.418v3.618c0,.124-.09.283-.283.158a10.175,10.175,0,0,0-4.975-1.063c-2.487,0-3.392.837-3.392,1.9s.678,1.685,3.1,2.646l1.2.486c4.3,1.775,5.483,3.81,5.483,6.433,0,3.9-3.166,6.354-8.129,6.354a12.6,12.6,0,0,1-5.653-1.131Z" transform="translate(-10335.376 -3392.629)" fill="#fff"/>
    <path id="Path_3735" data-name="Path 3735" d="M146.406,57.745c0,5.065-3.29,8.423-7.914,8.423-5.529,0-7.982-4.161-7.982-8.332,0-4.522,3.075-8.355,8.038-8.355C143.727,49.48,146.406,53.381,146.406,57.745Zm-11.306,0c0,2.838,1.323,4.647,3.482,4.647,1.877,0,3.3-1.617,3.3-4.59,0-2.51-1.04-4.613-3.493-4.613-1.922.034-3.347,1.707-3.347,4.59Z" transform="translate(-10333.484 -3392.039)" fill="#fff"/>
    <path id="Path_3736" data-name="Path 3736" d="M147.14,43.97c0-.158.068-.26.317-.26H151.3c.226,0,.328.1.328.26V62.059c0,.9.294,1.221,1.063,1.221h.588c.124,0,.158,0,.158.226v2.77c0,.26,0,.328-.226.384a5.167,5.167,0,0,1-2,.294c-2.329,0-4.07-.871-4.07-4.455Z" transform="translate(-10331.313 -3392.792)" fill="#fff"/>
    <path id="Path_3737" data-name="Path 3737" d="M168.771,62.229a28.623,28.623,0,0,0,.192,3.324c0,.192-.068.249-.294.249h-3.392c-.26,0-.317-.057-.384-.226a9.655,9.655,0,0,1-.192-1,6.614,6.614,0,0,1-4.421,1.549c-3.233,0-5.461-1.775-5.461-6.23V50.03c0-.226.068-.26.294-.26h3.934c.192,0,.226.068.226.26v9.361c0,1.741.746,2.872,2.521,2.872a3.6,3.6,0,0,0,2.521-.927V50.03c0-.192.09-.26.317-.26h3.912c.226,0,.26.068.26.26Z" transform="translate(-10330.31 -3392.001)" fill="#fff"/>
    <path id="Path_3738" data-name="Path 3738" d="M179.127,65.8c0,.192,0,.35-.226.418a7.914,7.914,0,0,1-2.872.452c-2.815,0-4.455-1.391-4.455-4.613v-8H169.63c-.192,0-.26-.1-.26-.294V50.575c0-.226.068-.294.294-.294h1.945a33.848,33.848,0,0,1,.317-3.9.35.35,0,0,1,.294-.294L176,45.6c.158,0,.26,0,.26.192-.1,1.006-.17,2.906-.17,4.522h2.973c.192,0,.26.068.26.26v3.267c0,.158-.068.192-.226.226h-3.041v6.908c0,1.413.43,2.058,1.752,2.058a6.151,6.151,0,0,0,1.131-.124c.124,0,.226,0,.226.226Z" transform="translate(-10328.409 -3392.545)" fill="#fff"/>
    <path id="Path_3739" data-name="Path 3739" d="M180.2,46.288a2.419,2.419,0,0,1,2.521-2.487,2.34,2.34,0,0,1,2.487,2.487,2.507,2.507,0,1,1-5.008,0Zm.226,4.522a.226.226,0,0,1,.26-.26h3.968c.192,0,.26.068.26.26V66.3c0,.192,0,.283-.294.283h-3.867c-.226,0-.328-.09-.328-.283Z" transform="translate(-10326.996 -3392.781)" fill="#fff"/>
    <path id="Path_3740" data-name="Path 3740" d="M202.835,57.745c0,5.065-3.3,8.423-7.914,8.423-5.517,0-7.971-4.161-7.971-8.332,0-4.522,3.064-8.355,8.038-8.355C200.178,49.48,202.835,53.381,202.835,57.745Zm-11.362,0c0,2.838,1.323,4.647,3.482,4.647,1.877,0,3.29-1.617,3.29-4.59,0-2.51-1.029-4.613-3.482-4.613-1.854.034-3.233,1.707-3.233,4.59Z" transform="translate(-10326.113 -3392.039)" fill="#fff"/>
    <path id="Path_3741" data-name="Path 3741" d="M203.606,53.549c0-1.131-.068-2.781-.136-3.493,0-.158,0-.26.226-.26h3.392a.384.384,0,0,1,.373.271,4.283,4.283,0,0,1,.26,1.063,7.066,7.066,0,0,1,4.522-1.639c2.487,0,5.427,1.289,5.427,6.49v9.576c0,.192-.068.283-.294.283H213.51c-.226,0-.328-.09-.328-.283v-9.2c0-1.933-.837-2.973-2.521-2.973a3.923,3.923,0,0,0-2.679,1.006v11.2c0,.158-.09.249-.283.249h-3.912c-.226,0-.283-.09-.283-.283Z" transform="translate(-10323.956 -3392.037)" fill="#fff"/>
    <path id="Path_3742" data-name="Path 3742" d="M226.374,45.552c0-.192,0-.26.192-.26,1.323,0,3.878-.1,6.331-.1,6.523,0,8.785,3.618,8.785,7.145,0,5.223-4.036,7.451-9.045,7.451h-1.843v6.365c0,.158-.068.249-.26.249h-3.968c-.158,0-.226-.09-.226-.249Zm4.455,10.266h1.809c2.555,0,4.579-.78,4.579-3.392,0-2.035-1.379-3.324-4.194-3.324a16.64,16.64,0,0,0-2.193.068Z" transform="translate(-10320.971 -3392.598)" fill="#fff"/>
    <path id="Path_3743" data-name="Path 3743" d="M254.566,62.267c0,.837,0,1.515.068,2.261,0,.068,0,.136-.068.17a17.806,17.806,0,0,1-7.032,1.447c-3.584,0-6.523-1.651-6.523-5.393,0-3.392,3.007-5.223,7.292-5.223a15.726,15.726,0,0,1,1.911,0V55.3c0-.611-.384-2.035-3.1-2.035a10.232,10.232,0,0,0-4.262.882c-.136,0-.294,0-.294-.17V50.8a.294.294,0,0,1,.226-.328,12.131,12.131,0,0,1,5.065-1c4.658,0,6.716,2.872,6.716,6.546Zm-4.353-3.335a13.762,13.762,0,0,0-1.617-.09c-2.261,0-3.233.746-3.233,1.9s.814,1.945,2.849,1.945a6.58,6.58,0,0,0,2-.294Z" transform="translate(-10319.055 -3392.039)" fill="#fff"/>
    <path id="Path_3744" data-name="Path 3744" d="M259.914,49.8a.35.35,0,0,1,.384.294,5.914,5.914,0,0,1,.362,1.809,6.783,6.783,0,0,1,5.133-2.419c.192,0,.26.057.26.26v3.968c0,.158-.068.226-.294.226a6.58,6.58,0,0,0-4.873,1.391V65.591c0,.192-.068.249-.294.249h-3.878c-.249,0-.317-.09-.317-.283V54.421a38.476,38.476,0,0,0-.158-4.4c0-.158,0-.226.192-.226Z" transform="translate(-10317.066 -3392.039)" fill="#fff"/>
    <path id="Path_3745" data-name="Path 3745" d="M276.206,65.8c0,.192,0,.35-.226.418a7.914,7.914,0,0,1-2.872.452c-2.815,0-4.455-1.391-4.455-4.613v-8h-1.945c-.192,0-.249-.1-.249-.294V50.575c0-.226.057-.294.283-.294h1.945a33.858,33.858,0,0,1,.317-3.9.362.362,0,0,1,.294-.294l3.776-.486c.158,0,.26,0,.26.192-.1,1.006-.158,2.906-.158,4.522h2.94c.192,0,.26.068.26.26v3.267c0,.158-.068.192-.226.226h-3.03v6.908c0,1.413.418,2.058,1.741,2.058a6.038,6.038,0,0,0,1.131-.124c.124,0,.226,0,.226.226Z" transform="translate(-10315.731 -3392.545)" fill="#fff"/>
    <path id="Path_3746" data-name="Path 3746" d="M277.5,53.55c0-1.131-.068-2.781-.136-3.493,0-.158,0-.26.226-.26h3.392a.384.384,0,0,1,.418.26,3.845,3.845,0,0,1,.26,1.063,7.066,7.066,0,0,1,4.522-1.639c2.487,0,5.427,1.289,5.427,6.49v9.587c0,.192-.068.283-.294.283h-3.867c-.226,0-.328-.09-.328-.283v-9.2c0-1.933-.837-2.973-2.51-2.973a3.9,3.9,0,0,0-2.679,1.006v11.2c0,.158-.1.249-.294.249h-3.912c-.226,0-.283-.09-.283-.283Z" transform="translate(-10314.308 -3392.039)" fill="#fff"/>
    <path id="Path_3747" data-name="Path 3747" d="M297.159,59c.17,1.843,1.458,3.392,4.624,3.392a9.927,9.927,0,0,0,3.968-.746c.1-.057.192,0,.192.17V64.88c0,.226,0,.328-.226.384a10.876,10.876,0,0,1-4.941.938c-6.06,0-8.2-4.161-8.2-8.163,0-4.454,2.747-8.525,7.812-8.525,4.873,0,6.783,3.776,6.783,6.976a9.9,9.9,0,0,1-.17,2.159.283.283,0,0,1-.26.26,32.666,32.666,0,0,1-3.324.124Zm4.206-3.132a10.177,10.177,0,0,0,1.617-.068v-.23a2.634,2.634,0,0,0-2.747-2.544,3.053,3.053,0,0,0-3.1,2.838Z" transform="translate(-10312.32 -3392.035)" fill="#fff"/>
    <path id="Path_3748" data-name="Path 3748" d="M311.627,49.8a.362.362,0,0,1,.384.294,5.946,5.946,0,0,1,.35,1.809,6.784,6.784,0,0,1,5.133-2.419c.2,0,.26.057.26.26v3.968c0,.158-.057.226-.283.226a6.614,6.614,0,0,0-4.884,1.391V65.591c0,.192-.068.249-.294.249h-3.878c-.26,0-.317-.09-.317-.283V54.421a35.95,35.95,0,0,0-.17-4.4c0-.158,0-.226.192-.226Z" transform="translate(-10310.316 -3392.039)" fill="#fff"/>
    <path id="Path_3749" data-name="Path 3749" d="M116.22,76.081c0-.1,0-.158.1-.181h3.573c3.72,0,4.33,1.9,4.33,3.053a2.7,2.7,0,0,1-1.063,2.261,2.872,2.872,0,0,1,1.63,2.686c0,2.137-1.854,3.55-4.862,3.55h-3.584a.136.136,0,0,1-.124-.158Zm2.374,4.285h1.187a15.522,15.522,0,0,1,1.56.079,1.425,1.425,0,0,0,.52-1.131c0-.893-.656-1.357-1.99-1.357h-1.278Zm0,4.941h1.278c1.5,0,2.4-.475,2.4-1.492a1.244,1.244,0,0,0-1.063-1.311,5,5,0,0,0-1.131-.1h-1.5Z" transform="translate(-10335.351 -3388.588)" fill="#fff"/>
    <path id="Path_3750" data-name="Path 3750" d="M126.367,87.319c-.113,0-.147,0-.147-.158V76.081c0-.09,0-.181.124-.181H130c2.906,0,4.522,1.244,4.522,3.493a3.29,3.29,0,0,1-2.182,3.075c.577.791,2.544,3.765,3.086,4.7,0,.113.068.215,0,.215h-2.544c-.147,0-.2,0-.237-.1-.509-.769-1.6-2.646-2.329-3.833-.124-.215-.2-.294-.4-.294h-1.278V87.24a.136.136,0,0,1-.147.147Zm3.584-6.3c1.311,0,2.148-.52,2.148-1.56s-.871-1.515-2.171-1.515H128.6v3.041Z" transform="translate(-10334.044 -3388.588)" fill="#fff"/>
    <path id="Path_3751" data-name="Path 3751" d="M146.484,81.569c0,3.561-2.261,5.958-5.495,5.958s-5.449-2.453-5.449-5.845,2.182-5.9,5.483-5.9C144.506,75.724,146.461,78.369,146.484,81.569Zm-5.4,3.81c1.82,0,2.894-1.436,2.894-3.7s-1.131-3.754-3-3.754-2.951,1.357-2.951,3.754c.011,2.069,1.1,3.7,3.053,3.7Z" transform="translate(-10332.827 -3388.604)" fill="#fff"/>
    <path id="Path_3752" data-name="Path 3752" d="M147.808,87.324c-.1,0-.158,0-.158-.158V76.018c0-.09,0-.136.124-.136h2.838c.136,0,.158,0,.226.136,1.131,2.148,3.527,6.784,4.093,8.027h0V76.018c0-.113,0-.158.158-.158h1.956c.124,0,.158,0,.158.17v11.1c0,.147,0,.181-.192.181H154.49c-.158,0-.192,0-.249-.147-.972-1.922-3.618-6.784-4.353-8.705h0c.068,1.018.079,1.718.079,3.392v5.336c0,.1,0,.158-.136.158Z" transform="translate(-10331.245 -3388.593)" fill="#fff"/>
    <path id="Path_3753" data-name="Path 3753" d="M158.468,87.32c-.09,0-.158,0-.158-.158V85.839a.385.385,0,0,1,.057-.226l5.766-7.552h-5.574c-.113,0-.158,0-.147-.147l.283-1.888c0-.1.068-.136.181-.136H167.1c.079,0,.1,0,.1.124v1.447a.486.486,0,0,1-.09.283l-5.653,7.417h5.981c.09,0,.124.068.09.17l-.317,1.865c0,.09,0,.147-.17.147Z" transform="translate(-10329.854 -3388.589)" fill="#fff"/>
    <path id="Path_3754" data-name="Path 3754" d="M176.018,87.188c0,.136,0,.158-.17.158h-7.123c-.1,0-.136,0-.136-.158V76.018c0-.113,0-.158.136-.158h6.908c.147,0,.181,0,.192.136l.192,1.888c0,.09,0,.158-.124.158H171.02v2.34h4.454c.09,0,.147,0,.147.147v1.922c0,.1-.068.124-.147.124H171.02V85.13h5.155c.147,0,.158,0,.147.147Z" transform="translate(-10328.512 -3388.593)" fill="#fff"/>
    <g id="Group_812" data-name="Group 812" transform="translate(-10634.526 -6489.5)">
      <rect id="Rectangle_329" data-name="Rectangle 329" width="97.321" height="94.89" rx="15.24" transform="translate(296.527 3100.836)" fill="#ee2424"/>
      <g id="_256" data-name=" 256" transform="translate(316.9 3121.107)">
        <path id="Path_3755" data-name="Path 3755" d="M84.386,77.71H72.842a2.533,2.533,0,0,1-2.374-1.526l-12.549-29.4a.531.531,0,0,0-.678-.373.565.565,0,0,0-.384.362L49.044,65.488a.644.644,0,0,0,.611.916h8.592a1.334,1.334,0,0,1,1.266.78l3.765,8.378a1.549,1.549,0,0,1-.814,2.024,1.594,1.594,0,0,1-.611.124H30.513A1.413,1.413,0,0,1,29.1,76.274a1.345,1.345,0,0,1,.113-.554l19.91-47.4A2.679,2.679,0,0,1,51.6,26.63H63.131a2.691,2.691,0,0,1,2.521,1.685L85.7,75.72a1.425,1.425,0,0,1-.746,1.877,1.515,1.515,0,0,1-.568.113Z" transform="translate(-29.1 -26.63)" fill="#fff"/>
      </g>
    </g>
  </g>
</svg>
