<svg xmlns="http://www.w3.org/2000/svg" xmlns:xlink="http://www.w3.org/1999/xlink" width="180" height="85" viewBox="0 0 180 85">
  <defs>
    <clipPath id="clip-path">
      <rect id="Rectangle_871" data-name="Rectangle 871" width="180" height="85" transform="translate(-9273 -6936)" fill="#8d3535"/>
    </clipPath>
  </defs>
  <g id="Mask_Group_256" data-name="Mask Group 256" transform="translate(9273 6936)" clip-path="url(#clip-path)">
    <g id="FINAL__DLUX_black_logo" data-name="FINAL__DLUX black logo" transform="translate(-9555 -7140.19)">
      <g id="Group_1410" data-name="Group 1410" transform="translate(341.208 224.19)">
        <g id="Group_1408" data-name="Group 1408" transform="translate(0 0)">
          <path id="Path_5225" data-name="Path 5225" d="M644.28,224.192H656.8a33.306,33.306,0,0,1,8.165.793,7.576,7.576,0,0,1,4.4,2.744,9.087,9.087,0,0,1,1.406,5.4V245.1a8.824,8.824,0,0,1-1.316,5.194,7.2,7.2,0,0,1-4.309,2.586,35.9,35.9,0,0,1-8.3.748H644.28V224.19Zm12.247,24.4a28.231,28.231,0,0,0,4.377-.25,3.612,3.612,0,0,0,2.132-.975,3.3,3.3,0,0,0,.657-2.268V232.99a3,3,0,0,0-1.655-2.926,12.386,12.386,0,0,0-5.285-.839h-5.4v19.368Z" transform="translate(-644.28 -224.19)" fill="#fff"/>
          <path id="Path_5226" data-name="Path 5226" d="M850.13,224.2h7.076v24.4h14.47v5.034H850.13Z" transform="translate(-817.925 -224.198)" fill="#fff"/>
          <path id="Path_5227" data-name="Path 5227" d="M1017.71,245.564V224.2h7.076v21.364a2.9,2.9,0,0,0,1.292,2.744,9.565,9.565,0,0,0,4.468.748,9.055,9.055,0,0,0,4.377-.748,2.929,2.929,0,0,0,1.247-2.744V224.2h7.076v21.364q0,8.528-12.791,8.528c-8.528,0-12.746-2.843-12.746-8.528Z" transform="translate(-959.288 -224.198)" fill="#fff"/>
          <path id="Path_5228" data-name="Path 5228" d="M1214.4,238.624,1204.012,224.2h8.165l6.3,9.8,6.259-9.8h8.165l-10.387,14.424,10.887,15.014h-8.21l-6.713-10.433-6.758,10.433h-8.165Z" transform="translate(-1116.062 -224.198)" fill="#fff"/>
        </g>
        <g id="Group_1409" data-name="Group 1409" transform="translate(0 37.302)">
          <path id="Path_5229" data-name="Path 5229" d="M644.28,469.624v-2.652q0-1.6,2.351-1.6a6.987,6.987,0,0,1,1.533.164v.62a6.289,6.289,0,0,0-1.516-.207,3.759,3.759,0,0,0-.585.039,2.223,2.223,0,0,0-.482.133.829.829,0,0,0-.5.843v2.617q0,.965,1.6.964a6.3,6.3,0,0,0,1.516-.206v.637a7.148,7.148,0,0,1-1.568.164q-2.351,0-2.351-1.516Z" transform="translate(-644.28 -464.94)" fill="#fff"/>
          <path id="Path_5230" data-name="Path 5230" d="M678.84,474.588h.732v.681a.54.54,0,0,1,.172-.375,1.263,1.263,0,0,1,.44-.285,1.391,1.391,0,0,1,.526-.108h.379v.663h-.43a1.658,1.658,0,0,0-.8.142.539.539,0,0,0-.246.512v2.937h-.774v-4.168Z" transform="translate(-673.433 -472.641)" fill="#fff"/>
          <path id="Path_5231" data-name="Path 5231" d="M699.977,478.737a.779.779,0,0,1-.465-.4,1.888,1.888,0,0,1-.142-.818,1.641,1.641,0,0,1,.133-.735.768.768,0,0,1,.455-.375,2.91,2.91,0,0,1,.917-.113h1.248v-.663a.594.594,0,0,0-.091-.357.508.508,0,0,0-.3-.177,2.763,2.763,0,0,0-.615-.052,11.034,11.034,0,0,0-1.43.1v-.568c.568-.052,1.083-.077,1.541-.077a3.851,3.851,0,0,1,1.067.108.736.736,0,0,1,.474.375,2,2,0,0,1,.13.826v2.944h-.749v-.4c-.062.322-.482.482-1.256.482a2.9,2.9,0,0,1-.917-.113Zm1.045-.4a3.569,3.569,0,0,0,.715-.061c.258-.052.388-.172.388-.361v-1.137h-1.2a1.8,1.8,0,0,0-.533.056.322.322,0,0,0-.214.211,1.725,1.725,0,0,0-.052.5,1.47,1.47,0,0,0,.061.479.4.4,0,0,0,.214.241,1.138,1.138,0,0,0,.465.074h.155Z" transform="translate(-690.751 -472.65)" fill="#fff"/>
          <path id="Path_5232" data-name="Path 5232" d="M730.476,465.075h-.956v-.508h.956V463.9a1.164,1.164,0,0,1,.383-.978,1.888,1.888,0,0,1,1.167-.3,6.865,6.865,0,0,1,.7.042v.508a5.243,5.243,0,0,0-.671-.042.956.956,0,0,0-.615.155.7.7,0,0,0-.185.56v.723h1.386v.508h-1.386v3.659h-.774v-3.659Z" transform="translate(-716.185 -462.62)" fill="#fff"/>
          <path id="Path_5233" data-name="Path 5233" d="M754.7,472.229a.77.77,0,0,1-.435-.4,1.871,1.871,0,0,1-.133-.789V468.6H753.2v-.508h.929V466.8h.784v1.291H756.4v.508h-1.489v2.489a1.138,1.138,0,0,0,.074.465.419.419,0,0,0,.258.219,1.751,1.751,0,0,0,.538.064c.075,0,.282-.023.62-.069v.508a5.664,5.664,0,0,1-.87.069A2.425,2.425,0,0,1,754.7,472.229Z" transform="translate(-736.16 -466.146)" fill="#fff"/>
          <path id="Path_5234" data-name="Path 5234" d="M781.81,465.43h.774v.809h-.774Zm0,1.507h.774V471.1h-.774Z" transform="translate(-760.294 -464.99)" fill="#fff"/>
          <path id="Path_5235" data-name="Path 5235" d="M798.1,474.6h.774v.508q.12-.594,1.369-.595a1.692,1.692,0,0,1,1.123.288,1.162,1.162,0,0,1,.322.909v3.057h-.774v-3.013a1.14,1.14,0,0,0-.025-.268.582.582,0,0,0-.1-.207c-.114-.144-.371-.216-.767-.216a2.979,2.979,0,0,0-.7.064.574.574,0,0,0-.344.211.733.733,0,0,0-.1.413v3.013H798.1v-4.168Z" transform="translate(-774.035 -472.65)" fill="#fff"/>
          <path id="Path_5236" data-name="Path 5236" d="M831.684,480.563v-.551a14.741,14.741,0,0,0,1.507.12,1.538,1.538,0,0,0,.865-.189.716.716,0,0,0,.271-.629v-1c-.013.183-.136.319-.375.405a2.679,2.679,0,0,1-.9.128,3.287,3.287,0,0,1-1-.12.863.863,0,0,1-.508-.4,1.571,1.571,0,0,1-.15-.749v-1.7a1.276,1.276,0,0,1,.4-1.059,2.122,2.122,0,0,1,1.313-.319q1.084,0,1.275.491V474.6h.723v4.564a1.645,1.645,0,0,1-.214.9,1.149,1.149,0,0,1-.646.46,3.874,3.874,0,0,1-1.12.133,9.069,9.069,0,0,1-1.438-.1Zm2.394-2.376a.585.585,0,0,0,.25-.551v-1.885a.818.818,0,0,0-.091-.43.535.535,0,0,0-.332-.211,2.955,2.955,0,0,0-.706-.064,2.637,2.637,0,0,0-.659.061.465.465,0,0,0-.3.211.927.927,0,0,0-.081.435v1.885a.884.884,0,0,0,.086.44.463.463,0,0,0,.31.2,2.922,2.922,0,0,0,.663.056,1.806,1.806,0,0,0,.86-.147Z" transform="translate(-802.117 -472.65)" fill="#fff"/>
          <path id="Path_5237" data-name="Path 5237" d="M882.182,465.98h1.248l1.791,4.65.025.009,1.7-4.657h1.2v5.588h-.732v-4.726h-.044l-1.8,4.726h-.749l-1.851-4.726h-.042v4.726h-.749v-5.588Z" transform="translate(-844.961 -465.454)" fill="#fff"/>
          <path id="Path_5238" data-name="Path 5238" d="M931.067,478.737a.778.778,0,0,1-.465-.4,1.887,1.887,0,0,1-.142-.818,1.642,1.642,0,0,1,.133-.735.768.768,0,0,1,.455-.375,2.91,2.91,0,0,1,.917-.113h1.248v-.663a.6.6,0,0,0-.091-.357.508.508,0,0,0-.3-.177,2.763,2.763,0,0,0-.615-.052,11.035,11.035,0,0,0-1.43.1v-.568c.568-.052,1.083-.077,1.541-.077a3.851,3.851,0,0,1,1.067.108.736.736,0,0,1,.474.375,2,2,0,0,1,.13.826v2.944h-.749v-.4c-.063.322-.482.482-1.256.482a2.9,2.9,0,0,1-.917-.113Zm1.045-.4a3.569,3.569,0,0,0,.715-.061c.258-.052.388-.172.388-.361v-1.137h-1.2a1.8,1.8,0,0,0-.534.056.322.322,0,0,0-.214.211,1.724,1.724,0,0,0-.052.5,1.466,1.466,0,0,0,.061.479.4.4,0,0,0,.214.241,1.138,1.138,0,0,0,.465.074h.155Z" transform="translate(-885.688 -472.65)" fill="#fff"/>
          <path id="Path_5239" data-name="Path 5239" d="M964.36,474.588h.732v.681a.54.54,0,0,1,.172-.375,1.264,1.264,0,0,1,.44-.285,1.391,1.391,0,0,1,.526-.108h.379v.663h-.43a1.658,1.658,0,0,0-.8.142.539.539,0,0,0-.246.512v2.937h-.774v-4.168Z" transform="translate(-914.284 -472.641)" fill="#fff"/>
          <path id="Path_5240" data-name="Path 5240" d="M984.187,472.229a.77.77,0,0,1-.435-.4,1.87,1.87,0,0,1-.133-.789V468.6h-.929v-.508h.929V466.8h.784v1.291h1.489v.508H984.4v2.489a1.138,1.138,0,0,0,.074.465.419.419,0,0,0,.258.219,1.75,1.75,0,0,0,.538.064c.075,0,.282-.023.62-.069v.508a5.664,5.664,0,0,1-.87.069A2.425,2.425,0,0,1,984.187,472.229Z" transform="translate(-929.747 -466.146)" fill="#fff"/>
          <path id="Path_5241" data-name="Path 5241" d="M1010.3,477.575v-1.644a1.283,1.283,0,0,1,.435-1.089,2.349,2.349,0,0,1,1.408-.332,2.177,2.177,0,0,1,1.33.319,1.32,1.32,0,0,1,.408,1.1v.921h-2.8v.629a.672.672,0,0,0,.3.62,1.787,1.787,0,0,0,.929.189,5.8,5.8,0,0,0,1.4-.207v.595a7.137,7.137,0,0,1-1.507.172q-1.913,0-1.912-1.275Zm2.807-1.231v-.654a.565.565,0,0,0-.228-.521,2.191,2.191,0,0,0-1.554,0,.552.552,0,0,0-.241.521v.654Z" transform="translate(-953.037 -472.65)" fill="#fff"/>
          <path id="Path_5242" data-name="Path 5242" d="M1043.719,478.833a2.7,2.7,0,0,1-.443-.086.916.916,0,0,1-.413-.206,1.116,1.116,0,0,1-.25-.405,1.75,1.75,0,0,1-.1-.646v-1.532a1.509,1.509,0,0,1,.266-1,1.256,1.256,0,0,1,.3-.263,1.046,1.046,0,0,1,.393-.125c.161-.023.3-.039.43-.047s.3-.013.534-.013a5.573,5.573,0,0,1,1.187.128v.568a5.335,5.335,0,0,0-1.283-.172,2.479,2.479,0,0,0-.659.064.453.453,0,0,0-.292.233,1.224,1.224,0,0,0-.081.512v1.705a.958.958,0,0,0,.091.474.509.509,0,0,0,.327.219,2.907,2.907,0,0,0,.7.064,4.938,4.938,0,0,0,1.256-.164v.585a6.708,6.708,0,0,1-1.334.12c-.288,0-.494-.006-.624-.017Z" transform="translate(-980.208 -472.65)" fill="#fff"/>
          <path id="Path_5243" data-name="Path 5243" d="M1071.772,463.17h.774v2.367q.12-.594,1.369-.594a1.692,1.692,0,0,1,1.123.288,1.163,1.163,0,0,1,.322.909V469.2h-.774v-3.005a1.14,1.14,0,0,0-.025-.268.582.582,0,0,0-.1-.207c-.114-.144-.371-.214-.767-.214a3.069,3.069,0,0,0-.72.064.539.539,0,0,0-.336.211.785.785,0,0,0-.091.413V469.2h-.774V463.17Z" transform="translate(-1004.891 -463.084)" fill="#fff"/>
          <path id="Path_5244" data-name="Path 5244" d="M1121.81,465.972h3.755v.585h-2.919v1.826h2.635v.585h-2.635v2.006h3.005v.585h-3.841V465.97Z" transform="translate(-1047.102 -465.446)" fill="#fff"/>
          <path id="Path_5245" data-name="Path 5245" d="M1153.96,477.083l-1.464-2.023h.853l1.032,1.524,1.042-1.524h.853l-1.464,2.023,1.55,2.143h-.853l-1.128-1.644-1.119,1.644h-.853Z" transform="translate(-1072.915 -473.114)" fill="#fff"/>
          <path id="Path_5246" data-name="Path 5246" d="M1185.489,478.833a2.7,2.7,0,0,1-.443-.086.916.916,0,0,1-.413-.206,1.118,1.118,0,0,1-.25-.405,1.753,1.753,0,0,1-.1-.646v-1.532a1.509,1.509,0,0,1,.266-1,1.258,1.258,0,0,1,.3-.263,1.046,1.046,0,0,1,.393-.125c.161-.023.3-.039.43-.047s.3-.013.533-.013a5.574,5.574,0,0,1,1.188.128v.568a5.335,5.335,0,0,0-1.283-.172,2.479,2.479,0,0,0-.659.064.454.454,0,0,0-.293.233,1.224,1.224,0,0,0-.081.512v1.705a.96.96,0,0,0,.091.474.509.509,0,0,0,.327.219,2.908,2.908,0,0,0,.7.064,4.938,4.938,0,0,0,1.256-.164v.585a6.71,6.71,0,0,1-1.335.12c-.288,0-.494-.006-.624-.017Z" transform="translate(-1099.799 -472.65)" fill="#fff"/>
          <path id="Path_5247" data-name="Path 5247" d="M1212.552,477.575v-1.644a1.283,1.283,0,0,1,.435-1.089,2.349,2.349,0,0,1,1.408-.332,2.177,2.177,0,0,1,1.33.319,1.32,1.32,0,0,1,.408,1.1v.921h-2.8v.629a.672.672,0,0,0,.3.62,1.787,1.787,0,0,0,.929.189,5.8,5.8,0,0,0,1.4-.207v.595a7.133,7.133,0,0,1-1.506.172q-1.913,0-1.912-1.275Zm2.807-1.231v-.654a.566.566,0,0,0-.228-.521,2.191,2.191,0,0,0-1.554,0,.552.552,0,0,0-.241.521v.654Z" transform="translate(-1123.646 -472.65)" fill="#fff"/>
          <path id="Path_5248" data-name="Path 5248" d="M1245.75,463.17h.774V469.2h-.774Z" transform="translate(-1151.652 -463.084)" fill="#fff"/>
          <path id="Path_5249" data-name="Path 5249" d="M1262.04,463.17h.774V469.2h-.774Z" transform="translate(-1165.393 -463.084)" fill="#fff"/>
          <path id="Path_5250" data-name="Path 5250" d="M1277.332,477.575v-1.644a1.284,1.284,0,0,1,.435-1.089,2.348,2.348,0,0,1,1.408-.332,2.177,2.177,0,0,1,1.33.319,1.32,1.32,0,0,1,.408,1.1v.921h-2.8v.629a.672.672,0,0,0,.3.62,1.786,1.786,0,0,0,.929.189,5.8,5.8,0,0,0,1.4-.207v.595a7.137,7.137,0,0,1-1.507.172q-1.913,0-1.912-1.275Zm2.807-1.231v-.654a.565.565,0,0,0-.229-.521,2.191,2.191,0,0,0-1.553,0,.552.552,0,0,0-.241.521v.654Z" transform="translate(-1178.291 -472.65)" fill="#fff"/>
          <path id="Path_5251" data-name="Path 5251" d="M1310.52,474.6h.774v.508q.12-.594,1.369-.595a1.692,1.692,0,0,1,1.123.288,1.162,1.162,0,0,1,.322.909v3.057h-.774v-3.013a1.146,1.146,0,0,0-.025-.268.586.586,0,0,0-.1-.207c-.114-.144-.371-.216-.767-.216a2.978,2.978,0,0,0-.7.064.573.573,0,0,0-.344.211.733.733,0,0,0-.1.413v3.013h-.774v-4.168Z" transform="translate(-1206.289 -472.65)" fill="#fff"/>
          <path id="Path_5252" data-name="Path 5252" d="M1345.029,478.833a2.691,2.691,0,0,1-.443-.086.917.917,0,0,1-.413-.206,1.119,1.119,0,0,1-.25-.405,1.753,1.753,0,0,1-.1-.646v-1.532a1.508,1.508,0,0,1,.266-1,1.251,1.251,0,0,1,.3-.263,1.045,1.045,0,0,1,.393-.125c.161-.023.3-.039.43-.047s.3-.013.533-.013a5.574,5.574,0,0,1,1.188.128v.568a5.335,5.335,0,0,0-1.283-.172,2.479,2.479,0,0,0-.659.064.453.453,0,0,0-.292.233,1.222,1.222,0,0,0-.081.512v1.705a.958.958,0,0,0,.091.474.509.509,0,0,0,.327.219,2.907,2.907,0,0,0,.7.064,4.937,4.937,0,0,0,1.256-.164v.585a6.706,6.706,0,0,1-1.334.12c-.288,0-.494-.006-.624-.017Z" transform="translate(-1234.379 -472.65)" fill="#fff"/>
          <path id="Path_5253" data-name="Path 5253" d="M1372.1,477.575v-1.644a1.283,1.283,0,0,1,.435-1.089,2.349,2.349,0,0,1,1.408-.332,2.177,2.177,0,0,1,1.33.319,1.32,1.32,0,0,1,.408,1.1v.921h-2.8v.629a.672.672,0,0,0,.3.62,1.787,1.787,0,0,0,.929.189,5.8,5.8,0,0,0,1.4-.207v.595a7.136,7.136,0,0,1-1.507.172q-1.913,0-1.912-1.275Zm2.807-1.231v-.654a.565.565,0,0,0-.228-.521,2.191,2.191,0,0,0-1.553,0,.552.552,0,0,0-.241.521v.654h2.023Z" transform="translate(-1258.235 -472.65)" fill="#fff"/>
        </g>
      </g>
      <g id="Group_1417" data-name="Group 1417" transform="translate(285 224.361)">
        <g id="Group_1411" data-name="Group 1411" transform="translate(9.858 0)">
          <circle id="Ellipse_76" data-name="Ellipse 76" cx="3.123" cy="3.123" r="3.123" transform="translate(7.755)" fill="#fff"/>
          <path id="Path_5254" data-name="Path 5254" d="M381.1,231.4a202.5,202.5,0,0,1-19.683,15.635l-.61.435c-1.242-1.029-2.484-2.073-3.7-3.126-3.126-2.7-6.2-5.458-9.1-8.415,4.46,2.805,8.691,5.931,12.852,9.14A198.376,198.376,0,0,1,381.1,231.4Z" transform="translate(-348.01 -230.443)" fill="#fff"/>
        </g>
        <g id="Group_1413" data-name="Group 1413" transform="translate(2.132 28.052)">
          <g id="Group_1412" data-name="Group 1412">
            <circle id="Ellipse_77" data-name="Ellipse 77" cx="3.123" cy="3.123" r="3.123" transform="translate(19.09 10.782)" fill="#fff"/>
            <path id="Path_5255" data-name="Path 5255" d="M298.63,420.66a202.5,202.5,0,0,1,19.683-15.635l.61-.435c1.242,1.029,2.484,2.073,3.7,3.126,3.126,2.7,6.2,5.458,9.1,8.415-4.46-2.805-8.691-5.931-12.852-9.14A198.37,198.37,0,0,1,298.63,420.66Z" transform="translate(-298.63 -404.59)" fill="#fff"/>
          </g>
          <circle id="Ellipse_78" data-name="Ellipse 78" cx="3.123" cy="3.123" r="3.123" transform="translate(19.09 10.782)" fill="#fff"/>
          <path id="Path_5256" data-name="Path 5256" d="M298.63,420.66a202.5,202.5,0,0,1,19.683-15.635l.61-.435c1.242,1.029,2.484,2.073,3.7,3.126,3.126,2.7,6.2,5.458,9.1,8.415-4.46-2.805-8.691-5.931-12.852-9.14A198.37,198.37,0,0,1,298.63,420.66Z" transform="translate(-298.63 -404.59)" fill="#fff"/>
        </g>
        <g id="Group_1414" data-name="Group 1414" transform="translate(28.052 9.858)">
          <circle id="Ellipse_79" data-name="Ellipse 79" cx="3.123" cy="3.123" r="3.123" transform="translate(10.782 7.755)" fill="#fff"/>
          <path id="Path_5257" data-name="Path 5257" d="M480.38,321.382A202.506,202.506,0,0,1,464.745,301.7l-.435-.61c1.029-1.242,2.073-2.484,3.126-3.7,2.7-3.126,5.458-6.2,8.415-9.1-2.805,4.46-5.931,8.691-9.14,12.852A198.375,198.375,0,0,1,480.38,321.382Z" transform="translate(-464.31 -288.29)" fill="#fff"/>
        </g>
        <g id="Group_1416" data-name="Group 1416" transform="translate(0 2.131)">
          <g id="Group_1415" data-name="Group 1415">
            <circle id="Ellipse_80" data-name="Ellipse 80" cx="3.123" cy="3.123" r="3.123" transform="translate(0 19.091)" fill="#fff"/>
            <path id="Path_5258" data-name="Path 5258" d="M291.12,238.9a202.51,202.51,0,0,1,15.635,19.683l.435.61c-1.029,1.242-2.073,2.484-3.126,3.7-2.7,3.126-5.458,6.2-8.415,9.1,2.805-4.46,5.931-8.691,9.14-12.852A198.367,198.367,0,0,1,291.12,238.9Z" transform="translate(-290.163 -238.9)" fill="#fff"/>
          </g>
          <circle id="Ellipse_81" data-name="Ellipse 81" cx="3.123" cy="3.123" r="3.123" transform="translate(0 19.091)" fill="#fff"/>
          <path id="Path_5259" data-name="Path 5259" d="M291.12,238.9a202.51,202.51,0,0,1,15.635,19.683l.435.61c-1.029,1.242-2.073,2.484-3.126,3.7-2.7,3.126-5.458,6.2-8.415,9.1,2.805-4.46,5.931-8.691,9.14-12.852A198.367,198.367,0,0,1,291.12,238.9Z" transform="translate(-290.163 -238.9)" fill="#fff"/>
        </g>
      </g>
    </g>
  </g>
</svg>
