<svg xmlns="http://www.w3.org/2000/svg" xmlns:xlink="http://www.w3.org/1999/xlink" width="180" height="85" viewBox="0 0 180 85">
  <defs>
    <clipPath id="clip-path">
      <rect id="Rectangle_873" data-name="Rectangle 873" width="180" height="85" transform="translate(-9886 -7044)" fill="#fff"/>
    </clipPath>
    <linearGradient id="linear-gradient" x1="0.025" y1="0.5" x2="1" y2="0.343" gradientUnits="objectBoundingBox">
      <stop offset="0" stop-color="#ff6a0c"/>
      <stop offset="1" stop-color="#ff5f0c"/>
    </linearGradient>
    <linearGradient id="linear-gradient-5" y1="0.342" x2="0.981" y2="0.08" gradientUnits="objectBoundingBox">
      <stop offset="0" stop-color="#ff7a0d"/>
      <stop offset="1" stop-color="#ff3b0a"/>
    </linearGradient>
  </defs>
  <g id="Mask_Group_257" data-name="Mask Group 257" transform="translate(9886 7044)" clip-path="url(#clip-path)">
    <g id="Group_1422" data-name="Group 1422" transform="translate(-9882 -7024)">
      <circle id="Ellipse_82" data-name="Ellipse 82" cx="3.089" cy="3.089" r="3.089" transform="translate(21.048 38.558)" fill="url(#linear-gradient)"/>
      <circle id="Ellipse_83" data-name="Ellipse 83" cx="3.089" cy="3.089" r="3.089" transform="translate(0 21.311)" fill="url(#linear-gradient)"/>
      <circle id="Ellipse_84" data-name="Ellipse 84" cx="3.089" cy="3.089" r="3.089" transform="translate(38.412 17.627)" fill="url(#linear-gradient)"/>
      <circle id="Ellipse_85" data-name="Ellipse 85" cx="3.089" cy="3.089" r="3.089" transform="translate(17.365 0.263)" fill="url(#linear-gradient)"/>
      <path id="Path_5260" data-name="Path 5260" d="M32.671,0A196.691,196.691,0,0,1,13.238,15.432l-.6.433c-1.22-1.02-2.456-2.055-3.646-3.089C5.9,10.118,2.858,7.384,0,4.464c4.4,2.765,8.573,5.855,12.7,9.021A195.8,195.8,0,0,1,32.671,0Z" transform="translate(0.958 35.012) rotate(-90)" fill="url(#linear-gradient-5)"/>
      <path id="Path_5261" data-name="Path 5261" d="M32.671,0A196.691,196.691,0,0,1,13.238,15.432l-.6.433c-1.22-1.02-2.456-2.055-3.646-3.089C5.9,10.118,2.858,7.384,0,4.464c4.4,2.765,8.573,5.855,12.7,9.021A195.8,195.8,0,0,1,32.671,0Z" transform="translate(43.516 9.909) rotate(90)" fill="url(#linear-gradient-5)"/>
      <path id="Path_5262" data-name="Path 5262" d="M32.671,0A196.691,196.691,0,0,1,13.238,15.432l-.6.433c-1.22-1.02-2.456-2.055-3.646-3.089C5.9,10.118,2.858,7.384,0,4.464c4.4,2.765,8.573,5.855,12.7,9.021A195.8,195.8,0,0,1,32.671,0Z" transform="translate(34.834 43.693) rotate(180)" fill="url(#linear-gradient-5)"/>
      <path id="Path_5263" data-name="Path 5263" d="M380.671,231.4a196.69,196.69,0,0,1-19.433,15.432l-.6.433c-1.22-1.02-2.456-2.055-3.646-3.09-3.089-2.657-6.133-5.391-8.99-8.311,4.4,2.765,8.573,5.855,12.7,9.021A195.8,195.8,0,0,1,380.671,231.4Z" transform="translate(-338.268 -230.288)" fill="url(#linear-gradient-5)"/>
      <g id="Group_1418" data-name="Group 1418" transform="translate(55.5)">
        <path id="Path_164" data-name="Path 164" d="M644.28,224.192h12.361a32.887,32.887,0,0,1,8.062.783,7.481,7.481,0,0,1,4.344,2.709,8.972,8.972,0,0,1,1.389,5.329v11.823a8.713,8.713,0,0,1-1.3,5.129,7.114,7.114,0,0,1-4.254,2.553,35.444,35.444,0,0,1-8.2.738H644.28V224.19Zm12.092,24.095a27.876,27.876,0,0,0,4.322-.247,3.567,3.567,0,0,0,2.106-.962,3.263,3.263,0,0,0,.649-2.24V232.879a2.966,2.966,0,0,0-1.634-2.889,12.23,12.23,0,0,0-5.218-.828h-5.329v19.124Z" transform="translate(-644.28 -224.19)" fill="#fff"/>
        <path id="Path_165" data-name="Path 165" d="M850.13,224.2h6.987v24.1H871.4v4.971H850.13Z" transform="translate(-818.331 -224.198)" fill="#fff"/>
        <path id="Path_166" data-name="Path 166" d="M1017.71,245.3V224.2h6.987v21.1a2.858,2.858,0,0,0,1.276,2.71,9.445,9.445,0,0,0,4.412.738,8.941,8.941,0,0,0,4.322-.738,2.892,2.892,0,0,0,1.231-2.71V224.2h6.987v21.1q0,8.42-12.63,8.42C1021.875,253.716,1017.71,250.909,1017.71,245.3Z" transform="translate(-960.024 -224.198)" fill="#fff"/>
        <path id="Path_167" data-name="Path 167" d="M1214.263,238.443,1204.006,224.2h8.062l6.225,9.675,6.18-9.675h8.062l-10.256,14.243,10.75,14.825h-8.107l-6.629-10.3-6.673,10.3h-8.062l10.7-14.825Z" transform="translate(-1117.165 -224.198)" fill="#fff"/>
      </g>
      <g id="Group_1419" data-name="Group 1419" transform="translate(55.5 36.831)">
        <path id="Path_168" data-name="Path 168" d="M644.28,469.57v-2.618q0-1.58,2.322-1.582a6.9,6.9,0,0,1,1.514.162v.612a6.209,6.209,0,0,0-1.5-.2,3.709,3.709,0,0,0-.578.039,2.2,2.2,0,0,0-.476.131.819.819,0,0,0-.493.833v2.584q0,.952,1.582.952a6.222,6.222,0,0,0,1.5-.2v.629a7.059,7.059,0,0,1-1.548.162q-2.322,0-2.322-1.5Z" transform="translate(-644.28 -464.945)" fill="#fff"/>
        <path id="Path_169" data-name="Path 169" d="M678.84,474.586h.723v.672a.533.533,0,0,1,.17-.371,1.248,1.248,0,0,1,.434-.281,1.375,1.375,0,0,1,.519-.107h.374v.655h-.425a1.638,1.638,0,0,0-.786.141.532.532,0,0,0-.242.505v2.9h-.765v-4.115Z" transform="translate(-673.501 -472.665)" fill="#fff"/>
        <path id="Path_170" data-name="Path 170" d="M699.969,478.684a.769.769,0,0,1-.459-.391,1.863,1.863,0,0,1-.141-.808,1.622,1.622,0,0,1,.131-.726.758.758,0,0,1,.45-.371,2.874,2.874,0,0,1,.905-.111h1.233v-.655a.587.587,0,0,0-.09-.352.5.5,0,0,0-.3-.175,2.727,2.727,0,0,0-.607-.051,10.9,10.9,0,0,0-1.412.1v-.561c.561-.051,1.069-.076,1.522-.076a3.8,3.8,0,0,1,1.054.107.727.727,0,0,1,.468.371,1.97,1.97,0,0,1,.128.816v2.907h-.74v-.391c-.062.318-.476.476-1.24.476a2.867,2.867,0,0,1-.905-.111Zm1.032-.391a3.525,3.525,0,0,0,.706-.06c.255-.051.383-.17.383-.357v-1.123h-1.182a1.776,1.776,0,0,0-.527.056.318.318,0,0,0-.212.209,1.7,1.7,0,0,0-.051.493,1.453,1.453,0,0,0,.06.473.4.4,0,0,0,.212.238,1.125,1.125,0,0,0,.459.073H701Z" transform="translate(-690.86 -472.673)" fill="#fff"/>
        <path id="Path_171" data-name="Path 171" d="M730.464,465.044h-.944v-.5h.944v-.663a1.149,1.149,0,0,1,.378-.965,1.864,1.864,0,0,1,1.152-.293,6.792,6.792,0,0,1,.689.042v.5a5.176,5.176,0,0,0-.663-.042.944.944,0,0,0-.607.153.692.692,0,0,0-.182.553v.714H732.6v.5h-1.369v3.613h-.765v-3.613Z" transform="translate(-716.353 -462.62)" fill="#fff"/>
        <path id="Path_172" data-name="Path 172" d="M754.678,472.16a.76.76,0,0,1-.429-.391,1.846,1.846,0,0,1-.131-.779v-2.414H753.2v-.5h.918V466.8h.774v1.274h1.471v.5h-1.471v2.458a1.122,1.122,0,0,0,.073.459.414.414,0,0,0,.255.216,1.728,1.728,0,0,0,.531.063c.074,0,.278-.023.612-.068v.5a5.594,5.594,0,0,1-.859.068A2.394,2.394,0,0,1,754.678,472.16Z" transform="translate(-736.375 -466.154)" fill="#fff"/>
        <path id="Path_173" data-name="Path 173" d="M781.81,465.43h.765v.8h-.765Zm0,1.488h.765v4.115h-.765Z" transform="translate(-760.565 -464.996)" fill="#fff"/>
        <path id="Path_174" data-name="Path 174" d="M798.1,474.595h.765v.5q.118-.586,1.352-.587a1.67,1.67,0,0,1,1.109.284,1.147,1.147,0,0,1,.318.9v3.018h-.765v-2.975a1.128,1.128,0,0,0-.025-.264.574.574,0,0,0-.1-.2c-.113-.142-.366-.213-.757-.213a2.941,2.941,0,0,0-.694.063.566.566,0,0,0-.34.209.724.724,0,0,0-.1.408v2.975H798.1v-4.115Z" transform="translate(-774.339 -472.673)" fill="#fff"/>
        <path id="Path_175" data-name="Path 175" d="M831.68,480.487v-.544a14.573,14.573,0,0,0,1.488.119,1.518,1.518,0,0,0,.854-.187.707.707,0,0,0,.267-.621v-.986c-.012.181-.134.315-.371.4a2.645,2.645,0,0,1-.888.127,3.248,3.248,0,0,1-.99-.119.852.852,0,0,1-.5-.391,1.552,1.552,0,0,1-.148-.74v-1.674a1.26,1.26,0,0,1,.4-1.046,2.1,2.1,0,0,1,1.3-.315q1.07,0,1.259.485v-.4h.714V479.1a1.624,1.624,0,0,1-.212.893,1.135,1.135,0,0,1-.638.454,3.826,3.826,0,0,1-1.106.131,8.952,8.952,0,0,1-1.42-.094Zm2.363-2.346a.578.578,0,0,0,.247-.544v-1.861a.808.808,0,0,0-.09-.425.528.528,0,0,0-.327-.209,2.916,2.916,0,0,0-.7-.063,2.6,2.6,0,0,0-.65.06.46.46,0,0,0-.3.209.916.916,0,0,0-.08.429V477.6a.873.873,0,0,0,.085.434.457.457,0,0,0,.306.2,2.888,2.888,0,0,0,.655.056,1.782,1.782,0,0,0,.85-.145Z" transform="translate(-802.486 -472.673)" fill="#fff"/>
        <path id="Path_176" data-name="Path 176" d="M882.181,465.98h1.233l1.769,4.591.025.009,1.674-4.6h1.19V471.5h-.723v-4.667h-.043l-1.776,4.667h-.74l-1.827-4.667h-.042V471.5h-.74v-5.518Z" transform="translate(-845.43 -465.461)" fill="#fff"/>
        <path id="Path_177" data-name="Path 177" d="M931.059,478.684a.769.769,0,0,1-.459-.391,1.863,1.863,0,0,1-.141-.808,1.621,1.621,0,0,1,.131-.726.758.758,0,0,1,.45-.371,2.873,2.873,0,0,1,.905-.111h1.233v-.655a.588.588,0,0,0-.09-.352.5.5,0,0,0-.3-.175,2.726,2.726,0,0,0-.607-.051,10.894,10.894,0,0,0-1.412.1v-.561c.561-.051,1.069-.076,1.522-.076a3.8,3.8,0,0,1,1.053.107.727.727,0,0,1,.468.371,1.971,1.971,0,0,1,.128.816v2.907h-.74v-.391c-.062.318-.476.476-1.24.476a2.869,2.869,0,0,1-.905-.111Zm1.032-.391a3.525,3.525,0,0,0,.706-.06c.255-.051.383-.17.383-.357v-1.123H932a1.775,1.775,0,0,0-.527.056.318.318,0,0,0-.212.209,1.7,1.7,0,0,0-.051.493,1.449,1.449,0,0,0,.06.473.4.4,0,0,0,.212.238,1.125,1.125,0,0,0,.459.073h.153Z" transform="translate(-886.253 -472.673)" fill="#fff"/>
        <path id="Path_178" data-name="Path 178" d="M964.36,474.586h.723v.672a.533.533,0,0,1,.17-.371,1.25,1.25,0,0,1,.434-.281,1.375,1.375,0,0,1,.519-.107h.374v.655h-.425a1.638,1.638,0,0,0-.786.141.532.532,0,0,0-.243.505v2.9h-.765v-4.115Z" transform="translate(-914.916 -472.665)" fill="#fff"/>
        <path id="Path_179" data-name="Path 179" d="M984.168,472.16a.76.76,0,0,1-.429-.391,1.846,1.846,0,0,1-.131-.779v-2.414h-.918v-.5h.918V466.8h.774v1.274h1.471v.5h-1.471v2.458a1.123,1.123,0,0,0,.073.459.414.414,0,0,0,.255.216,1.728,1.728,0,0,0,.531.063c.074,0,.278-.023.612-.068v.5a5.594,5.594,0,0,1-.859.068A2.394,2.394,0,0,1,984.168,472.16Z" transform="translate(-930.414 -466.154)" fill="#fff"/>
        <path id="Path_180" data-name="Path 180" d="M1010.3,477.536v-1.624a1.267,1.267,0,0,1,.429-1.075,2.319,2.319,0,0,1,1.39-.327,2.15,2.15,0,0,1,1.313.315,1.3,1.3,0,0,1,.4,1.088v.91h-2.764v.621a.663.663,0,0,0,.3.612,1.764,1.764,0,0,0,.918.187,5.725,5.725,0,0,0,1.386-.2v.587a7.044,7.044,0,0,1-1.488.17q-1.889,0-1.888-1.259Zm2.771-1.216v-.646a.558.558,0,0,0-.226-.514,2.163,2.163,0,0,0-1.534,0,.545.545,0,0,0-.238.514v.646Z" transform="translate(-953.759 -472.673)" fill="#fff"/>
        <path id="Path_181" data-name="Path 181" d="M1043.7,478.778a2.664,2.664,0,0,1-.437-.085.9.9,0,0,1-.408-.2,1.1,1.1,0,0,1-.247-.4,1.733,1.733,0,0,1-.1-.638v-1.512a1.49,1.49,0,0,1,.263-.987,1.237,1.237,0,0,1,.294-.26,1.031,1.031,0,0,1,.388-.124c.159-.023.3-.039.425-.046s.3-.012.527-.012a5.5,5.5,0,0,1,1.172.127v.561a5.268,5.268,0,0,0-1.267-.17,2.446,2.446,0,0,0-.65.063.447.447,0,0,0-.289.23,1.207,1.207,0,0,0-.08.505v1.684a.949.949,0,0,0,.089.468.5.5,0,0,0,.323.216,2.871,2.871,0,0,0,.694.063,4.879,4.879,0,0,0,1.24-.162v.578a6.621,6.621,0,0,1-1.318.119c-.284,0-.488-.006-.616-.017Z" transform="translate(-980.994 -472.673)" fill="#fff"/>
        <path id="Path_182" data-name="Path 182" d="M1071.772,463.17h.765v2.337q.118-.586,1.352-.587a1.67,1.67,0,0,1,1.109.284,1.148,1.148,0,0,1,.318.9v3.018h-.765v-2.967a1.121,1.121,0,0,0-.025-.264.574.574,0,0,0-.1-.2c-.113-.142-.366-.212-.757-.212a3.032,3.032,0,0,0-.711.063.532.532,0,0,0-.332.209.775.775,0,0,0-.09.408v2.967h-.765v-5.95Z" transform="translate(-1005.734 -463.085)" fill="#fff"/>
        <path id="Path_183" data-name="Path 183" d="M1121.81,465.972h3.707v.578h-2.883v1.8h2.6v.578h-2.6v1.98h2.968v.578h-3.792V465.97Z" transform="translate(-1048.044 -465.452)" fill="#fff"/>
        <path id="Path_184" data-name="Path 184" d="M1153.941,477.057l-1.446-2h.842l1.02,1.5,1.029-1.5h.842l-1.446,2,1.531,2.116h-.842l-1.114-1.624-1.1,1.624h-.842Z" transform="translate(-1073.917 -473.138)" fill="#fff"/>
        <path id="Path_185" data-name="Path 185" d="M1185.474,478.778a2.664,2.664,0,0,1-.437-.085.9.9,0,0,1-.408-.2,1.1,1.1,0,0,1-.247-.4,1.733,1.733,0,0,1-.1-.638v-1.512a1.49,1.49,0,0,1,.263-.987,1.237,1.237,0,0,1,.294-.26,1.031,1.031,0,0,1,.388-.124c.159-.023.3-.039.425-.046s.3-.012.527-.012a5.5,5.5,0,0,1,1.172.127v.561a5.268,5.268,0,0,0-1.267-.17,2.447,2.447,0,0,0-.65.063.447.447,0,0,0-.289.23,1.207,1.207,0,0,0-.08.505v1.684a.947.947,0,0,0,.09.468.5.5,0,0,0,.323.216,2.871,2.871,0,0,0,.694.063,4.878,4.878,0,0,0,1.24-.162v.578a6.621,6.621,0,0,1-1.318.119c-.284,0-.488-.006-.616-.017Z" transform="translate(-1100.864 -472.673)" fill="#fff"/>
        <path id="Path_186" data-name="Path 186" d="M1212.552,477.536v-1.624a1.267,1.267,0,0,1,.429-1.075,2.32,2.32,0,0,1,1.39-.327,2.15,2.15,0,0,1,1.313.315,1.3,1.3,0,0,1,.4,1.088v.91h-2.763v.621a.663.663,0,0,0,.3.612,1.764,1.764,0,0,0,.918.187,5.726,5.726,0,0,0,1.386-.2v.587a7.045,7.045,0,0,1-1.488.17q-1.889,0-1.888-1.259Zm2.771-1.216v-.646a.558.558,0,0,0-.225-.514,2.163,2.163,0,0,0-1.534,0,.545.545,0,0,0-.238.514v.646Z" transform="translate(-1124.767 -472.673)" fill="#fff"/>
        <path id="Path_187" data-name="Path 187" d="M1245.75,463.17h.765v5.95h-.765Z" transform="translate(-1152.838 -463.085)" fill="#fff"/>
        <path id="Path_188" data-name="Path 188" d="M1262.04,463.17h.765v5.95h-.765Z" transform="translate(-1166.612 -463.085)" fill="#fff"/>
        <path id="Path_189" data-name="Path 189" d="M1277.331,477.536v-1.624a1.267,1.267,0,0,1,.429-1.075,2.32,2.32,0,0,1,1.39-.327,2.149,2.149,0,0,1,1.313.315,1.3,1.3,0,0,1,.4,1.088v.91H1278.1v.621a.663.663,0,0,0,.3.612,1.764,1.764,0,0,0,.918.187,5.728,5.728,0,0,0,1.386-.2v.587a7.045,7.045,0,0,1-1.488.17q-1.889,0-1.888-1.259Zm2.771-1.216v-.646a.558.558,0,0,0-.225-.514,2.163,2.163,0,0,0-1.534,0,.545.545,0,0,0-.238.514v.646Z" transform="translate(-1179.54 -472.673)" fill="#fff"/>
        <path id="Path_190" data-name="Path 190" d="M1310.52,474.595h.765v.5q.118-.586,1.352-.587a1.67,1.67,0,0,1,1.109.284,1.147,1.147,0,0,1,.318.9v3.018h-.765v-2.975a1.128,1.128,0,0,0-.025-.264.575.575,0,0,0-.1-.2c-.113-.142-.366-.213-.757-.213a2.941,2.941,0,0,0-.693.063.566.566,0,0,0-.34.209.724.724,0,0,0-.1.408v2.975h-.765v-4.115Z" transform="translate(-1207.603 -472.673)" fill="#fff"/>
        <path id="Path_191" data-name="Path 191" d="M1345.014,478.778a2.664,2.664,0,0,1-.437-.085.9.9,0,0,1-.408-.2,1.1,1.1,0,0,1-.247-.4,1.733,1.733,0,0,1-.1-.638v-1.512a1.49,1.49,0,0,1,.262-.987,1.242,1.242,0,0,1,.294-.26,1.033,1.033,0,0,1,.388-.124c.159-.023.3-.039.425-.046s.3-.012.527-.012a5.505,5.505,0,0,1,1.173.127v.561a5.268,5.268,0,0,0-1.267-.17,2.448,2.448,0,0,0-.65.063.447.447,0,0,0-.289.23,1.207,1.207,0,0,0-.08.505v1.684a.947.947,0,0,0,.089.468.5.5,0,0,0,.323.216,2.871,2.871,0,0,0,.693.063,4.877,4.877,0,0,0,1.24-.162v.578a6.62,6.62,0,0,1-1.318.119c-.284,0-.488-.006-.616-.017Z" transform="translate(-1235.759 -472.673)" fill="#fff"/>
        <path id="Path_192" data-name="Path 192" d="M1372.1,477.536v-1.624a1.267,1.267,0,0,1,.429-1.075,2.32,2.32,0,0,1,1.39-.327,2.15,2.15,0,0,1,1.313.315,1.3,1.3,0,0,1,.4,1.088v.91h-2.764v.621a.663.663,0,0,0,.3.612,1.764,1.764,0,0,0,.918.187,5.725,5.725,0,0,0,1.386-.2v.587a7.043,7.043,0,0,1-1.488.17q-1.889,0-1.888-1.259Zm2.771-1.216v-.646a.558.558,0,0,0-.225-.514,2.163,2.163,0,0,0-1.534,0,.545.545,0,0,0-.238.514v.646Z" transform="translate(-1259.67 -472.673)" fill="#fff"/>
      </g>
    </g>
  </g>
</svg>
