<svg xmlns="http://www.w3.org/2000/svg" xmlns:xlink="http://www.w3.org/1999/xlink" width="769.529" height="154" viewBox="0 0 769.529 154">
  <defs>
    <clipPath id="clip-path">
      <rect id="Rectangle_947" data-name="Rectangle 947" width="270.979" height="73.473" fill="#fff"/>
    </clipPath>
  </defs>
  <g id="Group_1601" data-name="Group 1601" transform="translate(-296.027 -2975.63)">
    <path id="Path_3727" data-name="Path 3727" d="M85,345.8a.8.8,0,1,1,.8-.8c-.1.4-.4.8-.8.8m0-1.4a.669.669,0,0,0-.7.6.684.684,0,0,0,.7.7c.4,0,.6-.3.6-.7a.576.576,0,0,0-.6-.6m.2,1-.2-.3h-.2v.3h-.1v-.9H85a.319.319,0,0,1,.3.3.37.37,0,0,1-.2.3l.2.3h-.1Zm-.2-.7h-.2v.3H85a.215.215,0,0,0,.2-.2c0-.1-.1-.1-.2-.1" transform="translate(772 2703.363)" fill="#eb1000"/>
    <line id="Line_8" data-name="Line 8" y2="154" transform="translate(726 2975.63)" fill="none" stroke="#fff" stroke-width="1"/>
    <path id="Path_3729" data-name="Path 3729" d="M121.077,32.867l-1.572,4.715a.35.35,0,0,1-.362.26H115.4c-.226,0-.294-.124-.26-.317L121.6,18.893a5.721,5.721,0,0,0,.328-1.967.2.2,0,0,1,.192-.226h5.167c.158,0,.226,0,.26.192l7.326,20.667c.068.158,0,.283-.158.283h-4.206a.317.317,0,0,1-.35-.226l-1.605-4.748Zm6.263-4.036c-.644-2.137-1.945-6.037-2.555-8.332h0c-.509,2.159-1.673,5.721-2.51,8.332Z" transform="translate(298.534 2996.311)" fill="#fff"/>
    <path id="Path_3730" data-name="Path 3730" d="M133.46,30.174c0-4.624,3.46-8.491,9.361-8.491a8.441,8.441,0,0,1,1.074.057V15.386a.2.2,0,0,1,.226-.226h4.059c.17,0,.2.057.2.192V34.425a17.461,17.461,0,0,0,.124,2.363c0,.158,0,.226-.226.294a16.348,16.348,0,0,1-6.3,1.289C137.146,38.371,133.46,35.658,133.46,30.174Zm10.435-4.59a3.5,3.5,0,0,0-1.2-.158,4.308,4.308,0,0,0-4.613,4.522c0,3.188,1.832,4.579,4.3,4.579a4.647,4.647,0,0,0,1.515-.192Z" transform="translate(300.928 2996.11)" fill="#fff"/>
    <path id="Path_3731" data-name="Path 3731" d="M165.136,29.195c0,5.065-3.29,8.423-7.914,8.423-5.529,0-7.982-4.172-7.982-8.332,0-4.579,3.075-8.355,8.038-8.355C162.457,20.93,165.136,24.831,165.136,29.195Zm-11.362,0c0,2.849,1.323,4.658,3.482,4.658,1.877,0,3.3-1.617,3.3-4.59,0-2.521-1.04-4.613-3.493-4.613-1.865.023-3.29,1.7-3.29,4.568Z" transform="translate(302.988 2996.864)" fill="#fff"/>
    <path id="Path_3732" data-name="Path 3732" d="M170.036,15.16c.26,0,.328,0,.328.26v6.614a10.367,10.367,0,0,1,2.713-.35,7.383,7.383,0,0,1,7.745,7.677c0,6.037-4.771,9.045-9.689,9.045a16.812,16.812,0,0,1-5.11-.814.385.385,0,0,1-.192-.317V15.386c0-.17.068-.226.226-.226ZM172.3,25.482a6.784,6.784,0,0,0-1.9.26v8.751a4.76,4.76,0,0,0,1.2.136,4.454,4.454,0,0,0,4.6-4.85c0-2.94-1.673-4.3-3.934-4.3Z" transform="translate(305.155 2996.11)" fill="#fff"/>
    <path id="Path_3733" data-name="Path 3733" d="M185.59,30.446c.158,1.843,1.447,3.392,4.613,3.392a9.893,9.893,0,0,0,3.968-.746c.1-.068.192,0,.192.158v3.075c0,.226,0,.317-.226.384a10.842,10.842,0,0,1-4.941.938c-6.06,0-8.2-4.172-8.2-8.174,0-4.454,2.747-8.513,7.812-8.513,4.873,0,6.784,3.776,6.784,6.964a9.95,9.95,0,0,1-.17,2.171.249.249,0,0,1-.249.249,28.817,28.817,0,0,1-3.335.136Zm4.194-3.132a10.175,10.175,0,0,0,1.617-.068V27.02a2.634,2.634,0,0,0-2.747-2.544,3.053,3.053,0,0,0-3.132,2.838Z" transform="translate(307.136 2996.868)" fill="#fff"/>
    <path id="Path_3734" data-name="Path 3734" d="M116.37,65.628a.543.543,0,0,1-.226-.52V61.275c0-.17.136-.26.26-.17a11.125,11.125,0,0,0,5.845,1.685c2.453,0,3.392-.837,3.392-1.967s-.746-1.775-2.939-2.713l-1.617-.678c-3.968-1.685-5.065-3.686-5.065-6.2,0-3.493,2.646-6.263,7.778-6.263a11.95,11.95,0,0,1,5.031.837c.17.09.192.226.192.418v3.618c0,.124-.09.283-.283.158a10.175,10.175,0,0,0-4.975-1.063c-2.487,0-3.392.837-3.392,1.9s.678,1.685,3.1,2.646l1.2.486c4.3,1.775,5.483,3.81,5.483,6.433,0,3.9-3.166,6.354-8.129,6.354a12.6,12.6,0,0,1-5.653-1.131Z" transform="translate(298.65 3000.001)" fill="#fff"/>
    <path id="Path_3735" data-name="Path 3735" d="M146.406,57.745c0,5.065-3.29,8.423-7.914,8.423-5.529,0-7.982-4.161-7.982-8.332,0-4.522,3.075-8.355,8.038-8.355C143.727,49.48,146.406,53.381,146.406,57.745Zm-11.306,0c0,2.838,1.323,4.647,3.482,4.647,1.877,0,3.3-1.617,3.3-4.59,0-2.51-1.04-4.613-3.493-4.613-1.922.034-3.347,1.707-3.347,4.59Z" transform="translate(300.542 3000.591)" fill="#fff"/>
    <path id="Path_3736" data-name="Path 3736" d="M147.14,43.97c0-.158.068-.26.317-.26H151.3c.226,0,.328.1.328.26V62.059c0,.9.294,1.221,1.063,1.221h.588c.124,0,.158,0,.158.226v2.77c0,.26,0,.328-.226.384a5.167,5.167,0,0,1-2,.294c-2.329,0-4.07-.871-4.07-4.455Z" transform="translate(302.714 2999.838)" fill="#fff"/>
    <path id="Path_3737" data-name="Path 3737" d="M168.771,62.229a28.628,28.628,0,0,0,.192,3.324c0,.192-.068.249-.294.249h-3.392c-.26,0-.317-.057-.384-.226a9.658,9.658,0,0,1-.192-.995,6.614,6.614,0,0,1-4.421,1.549c-3.233,0-5.461-1.775-5.461-6.23V50.03c0-.226.068-.26.294-.26h3.934c.192,0,.226.068.226.26v9.361c0,1.741.746,2.872,2.521,2.872a3.6,3.6,0,0,0,2.521-.927V50.03c0-.192.09-.26.317-.26h3.912c.226,0,.26.068.26.26Z" transform="translate(303.717 3000.629)" fill="#fff"/>
    <path id="Path_3738" data-name="Path 3738" d="M179.127,65.8c0,.192,0,.35-.226.418a7.914,7.914,0,0,1-2.872.452c-2.815,0-4.455-1.391-4.455-4.613v-8H169.63c-.192,0-.26-.1-.26-.294V50.575c0-.226.068-.294.294-.294h1.945a33.847,33.847,0,0,1,.317-3.9.35.35,0,0,1,.294-.294L176,45.6c.158,0,.26,0,.26.192-.1,1.006-.17,2.906-.17,4.522h2.973c.192,0,.26.068.26.26v3.267c0,.158-.068.192-.226.226h-3.041v6.908c0,1.413.43,2.058,1.752,2.058a6.151,6.151,0,0,0,1.131-.124c.124,0,.226,0,.226.226Z" transform="translate(305.617 3000.085)" fill="#fff"/>
    <path id="Path_3739" data-name="Path 3739" d="M180.2,46.288a2.419,2.419,0,0,1,2.521-2.487,2.34,2.34,0,0,1,2.487,2.487,2.507,2.507,0,1,1-5.008,0Zm.226,4.522a.226.226,0,0,1,.26-.26h3.968c.192,0,.26.068.26.26V66.3c0,.192,0,.283-.294.283h-3.867c-.226,0-.328-.09-.328-.283Z" transform="translate(307.03 2999.849)" fill="#fff"/>
    <path id="Path_3740" data-name="Path 3740" d="M202.835,57.745c0,5.065-3.3,8.423-7.914,8.423-5.517,0-7.971-4.161-7.971-8.332,0-4.522,3.064-8.355,8.038-8.355C200.178,49.48,202.835,53.381,202.835,57.745Zm-11.362,0c0,2.838,1.323,4.647,3.482,4.647,1.877,0,3.29-1.617,3.29-4.59,0-2.51-1.029-4.613-3.482-4.613-1.854.034-3.233,1.707-3.233,4.59Z" transform="translate(307.913 3000.591)" fill="#fff"/>
    <path id="Path_3741" data-name="Path 3741" d="M203.606,53.549c0-1.131-.068-2.781-.136-3.493,0-.158,0-.26.226-.26h3.392a.384.384,0,0,1,.373.271,4.283,4.283,0,0,1,.26,1.063,7.066,7.066,0,0,1,4.522-1.639c2.487,0,5.427,1.289,5.427,6.49v9.576c0,.192-.068.283-.294.283H213.51c-.226,0-.328-.09-.328-.283v-9.2c0-1.933-.837-2.973-2.521-2.973a3.923,3.923,0,0,0-2.679,1.006v11.2c0,.158-.09.249-.283.249h-3.912c-.226,0-.283-.09-.283-.283Z" transform="translate(310.07 3000.593)" fill="#fff"/>
    <path id="Path_3742" data-name="Path 3742" d="M226.374,45.552c0-.192,0-.26.192-.26,1.323,0,3.878-.1,6.331-.1,6.523,0,8.785,3.618,8.785,7.145,0,5.223-4.036,7.451-9.045,7.451h-1.843v6.365c0,.158-.068.249-.26.249h-3.968c-.158,0-.226-.09-.226-.249Zm4.455,10.266h1.809c2.555,0,4.579-.78,4.579-3.392,0-2.035-1.379-3.324-4.194-3.324a16.64,16.64,0,0,0-2.193.068Z" transform="translate(313.056 3000.032)" fill="#fff"/>
    <path id="Path_3743" data-name="Path 3743" d="M254.566,62.267c0,.837,0,1.515.068,2.261,0,.068,0,.136-.068.17a17.806,17.806,0,0,1-7.032,1.447c-3.584,0-6.523-1.651-6.523-5.393,0-3.392,3.007-5.223,7.292-5.223a15.726,15.726,0,0,1,1.911,0V55.3c0-.611-.384-2.035-3.1-2.035a10.232,10.232,0,0,0-4.262.882c-.136,0-.294,0-.294-.17V50.8a.294.294,0,0,1,.226-.328,12.131,12.131,0,0,1,5.065-.995c4.658,0,6.716,2.872,6.716,6.546Zm-4.353-3.335a13.761,13.761,0,0,0-1.617-.09c-2.261,0-3.233.746-3.233,1.9s.814,1.945,2.849,1.945a6.58,6.58,0,0,0,2-.294Z" transform="translate(314.972 3000.591)" fill="#fff"/>
    <path id="Path_3744" data-name="Path 3744" d="M259.914,49.8a.35.35,0,0,1,.384.294,5.913,5.913,0,0,1,.362,1.809,6.783,6.783,0,0,1,5.133-2.419c.192,0,.26.057.26.26v3.968c0,.158-.068.226-.294.226a6.58,6.58,0,0,0-4.873,1.391V65.591c0,.192-.068.249-.294.249h-3.878c-.249,0-.317-.09-.317-.283V54.421a38.483,38.483,0,0,0-.158-4.4c0-.158,0-.226.192-.226Z" transform="translate(316.96 3000.591)" fill="#fff"/>
    <path id="Path_3745" data-name="Path 3745" d="M276.206,65.8c0,.192,0,.35-.226.418a7.914,7.914,0,0,1-2.872.452c-2.815,0-4.455-1.391-4.455-4.613v-8h-1.945c-.192,0-.249-.1-.249-.294V50.575c0-.226.057-.294.283-.294h1.945a33.853,33.853,0,0,1,.317-3.9.362.362,0,0,1,.294-.294l3.776-.486c.158,0,.26,0,.26.192-.1,1.006-.158,2.906-.158,4.522h2.94c.192,0,.26.068.26.26v3.267c0,.158-.068.192-.226.226h-3.03v6.908c0,1.413.418,2.058,1.741,2.058a6.038,6.038,0,0,0,1.131-.124c.124,0,.226,0,.226.226Z" transform="translate(318.295 3000.085)" fill="#fff"/>
    <path id="Path_3746" data-name="Path 3746" d="M277.5,53.55c0-1.131-.068-2.781-.136-3.493,0-.158,0-.26.226-.26h3.392a.384.384,0,0,1,.418.26,3.844,3.844,0,0,1,.26,1.063,7.066,7.066,0,0,1,4.522-1.639c2.487,0,5.427,1.289,5.427,6.49v9.587c0,.192-.068.283-.294.283h-3.867c-.226,0-.328-.09-.328-.283v-9.2c0-1.933-.837-2.973-2.51-2.973a3.9,3.9,0,0,0-2.679,1.006v11.2c0,.158-.1.249-.294.249h-3.912c-.226,0-.283-.09-.283-.283Z" transform="translate(319.719 3000.591)" fill="#fff"/>
    <path id="Path_3747" data-name="Path 3747" d="M297.159,59c.17,1.843,1.458,3.392,4.624,3.392a9.927,9.927,0,0,0,3.968-.746c.1-.057.192,0,.192.17v3.064c0,.226,0,.328-.226.384a10.876,10.876,0,0,1-4.941.938c-6.06,0-8.2-4.161-8.2-8.163,0-4.454,2.747-8.525,7.812-8.525,4.873,0,6.783,3.776,6.783,6.976a9.9,9.9,0,0,1-.17,2.159.283.283,0,0,1-.26.26,32.667,32.667,0,0,1-3.324.124Zm4.206-3.132a10.177,10.177,0,0,0,1.617-.068V55.57a2.634,2.634,0,0,0-2.747-2.544,3.053,3.053,0,0,0-3.1,2.838Z" transform="translate(321.706 3000.595)" fill="#fff"/>
    <path id="Path_3748" data-name="Path 3748" d="M311.627,49.8a.362.362,0,0,1,.384.294,5.946,5.946,0,0,1,.35,1.809,6.784,6.784,0,0,1,5.133-2.419c.2,0,.26.057.26.26v3.968c0,.158-.057.226-.283.226a6.614,6.614,0,0,0-4.884,1.391V65.591c0,.192-.068.249-.294.249h-3.878c-.26,0-.317-.09-.317-.283V54.421a35.943,35.943,0,0,0-.17-4.4c0-.158,0-.226.192-.226Z" transform="translate(323.71 3000.591)" fill="#fff"/>
    <path id="Path_3749" data-name="Path 3749" d="M116.22,76.081c0-.1,0-.158.1-.181h3.573c3.72,0,4.33,1.9,4.33,3.053a2.7,2.7,0,0,1-1.063,2.261A2.872,2.872,0,0,1,124.79,83.9c0,2.137-1.854,3.55-4.862,3.55h-3.584a.136.136,0,0,1-.124-.158Zm2.374,4.285h1.187a15.522,15.522,0,0,1,1.56.079,1.425,1.425,0,0,0,.52-1.131c0-.893-.656-1.357-1.99-1.357h-1.278Zm0,4.941h1.278c1.5,0,2.4-.475,2.4-1.492a1.244,1.244,0,0,0-1.063-1.311,5,5,0,0,0-1.131-.1h-1.5Z" transform="translate(298.676 3004.042)" fill="#fff"/>
    <path id="Path_3750" data-name="Path 3750" d="M126.367,87.319c-.113,0-.147,0-.147-.158V76.081c0-.09,0-.181.124-.181H130c2.906,0,4.522,1.244,4.522,3.493a3.29,3.29,0,0,1-2.182,3.075c.577.791,2.544,3.765,3.086,4.7,0,.113.068.215,0,.215h-2.544c-.147,0-.2,0-.237-.1-.509-.769-1.605-2.646-2.329-3.833-.124-.215-.2-.294-.4-.294h-1.278V87.24a.136.136,0,0,1-.147.147Zm3.584-6.3c1.311,0,2.148-.52,2.148-1.56s-.871-1.515-2.171-1.515h-1.323v3.041Z" transform="translate(299.982 3004.042)" fill="#fff"/>
    <path id="Path_3751" data-name="Path 3751" d="M146.484,81.569c0,3.561-2.261,5.958-5.495,5.958s-5.449-2.453-5.449-5.845,2.182-5.9,5.483-5.9C144.506,75.724,146.461,78.369,146.484,81.569Zm-5.4,3.81c1.82,0,2.894-1.436,2.894-3.7s-1.131-3.754-3-3.754-2.951,1.357-2.951,3.754c.011,2.069,1.1,3.7,3.053,3.7Z" transform="translate(301.199 3004.026)" fill="#fff"/>
    <path id="Path_3752" data-name="Path 3752" d="M147.808,87.324c-.1,0-.158,0-.158-.158V76.018c0-.09,0-.136.124-.136h2.838c.136,0,.158,0,.226.136,1.131,2.148,3.527,6.784,4.093,8.027h0V76.018c0-.113,0-.158.158-.158h1.956c.124,0,.158,0,.158.17v11.1c0,.147,0,.181-.192.181H154.49c-.158,0-.192,0-.249-.147-.972-1.922-3.618-6.784-4.353-8.705h0c.068,1.018.079,1.718.079,3.392v5.336c0,.1,0,.158-.136.158Z" transform="translate(302.781 3004.037)" fill="#fff"/>
    <path id="Path_3753" data-name="Path 3753" d="M158.468,87.32c-.09,0-.158,0-.158-.158V85.839a.385.385,0,0,1,.057-.226l5.766-7.552h-5.574c-.113,0-.158,0-.147-.147l.283-1.888c0-.1.068-.136.181-.136h8.219c.079,0,.1,0,.1.124v1.447a.486.486,0,0,1-.09.283l-5.653,7.417h5.981c.09,0,.124.068.09.17l-.317,1.865c0,.09,0,.147-.17.147Z" transform="translate(304.172 3004.041)" fill="#fff"/>
    <path id="Path_3754" data-name="Path 3754" d="M176.018,87.188c0,.136,0,.158-.17.158h-7.123c-.1,0-.136,0-.136-.158V76.018c0-.113,0-.158.136-.158h6.908c.147,0,.181,0,.192.136l.192,1.888c0,.09,0,.158-.124.158h-4.873v2.34h4.454c.09,0,.147,0,.147.147v1.922c0,.1-.068.124-.147.124h-4.454v2.555h5.155c.147,0,.158,0,.147.147Z" transform="translate(305.515 3004.037)" fill="#fff"/>
    <g id="Group_812" data-name="Group 812" transform="translate(-0.5 -96.87)">
      <rect id="Rectangle_329" data-name="Rectangle 329" width="97.321" height="94.89" rx="15.24" transform="translate(296.527 3100.836)" fill="#ee2424"/>
      <g id="_256" data-name=" 256" transform="translate(316.9 3121.107)">
        <path id="Path_3755" data-name="Path 3755" d="M84.386,77.71H72.842a2.533,2.533,0,0,1-2.374-1.526l-12.549-29.4a.531.531,0,0,0-.678-.373.565.565,0,0,0-.384.362L49.044,65.488a.644.644,0,0,0,.611.916h8.592a1.334,1.334,0,0,1,1.266.78l3.765,8.378a1.549,1.549,0,0,1-.814,2.024,1.594,1.594,0,0,1-.611.124H30.513A1.413,1.413,0,0,1,29.1,76.274a1.345,1.345,0,0,1,.113-.554l19.91-47.405A2.679,2.679,0,0,1,51.6,26.63H63.131a2.691,2.691,0,0,1,2.521,1.685L85.7,75.72a1.425,1.425,0,0,1-.746,1.877A1.515,1.515,0,0,1,84.386,77.71Z" transform="translate(-29.1 -26.63)" fill="#fff"/>
      </g>
    </g>
    <g id="Group_1599" data-name="Group 1599" transform="translate(794.576 3015)" clip-path="url(#clip-path)">
      <path id="Path_5564" data-name="Path 5564" d="M2.846,21.705A7.826,7.826,0,0,1,0,15.273H7.5q.094,2.982,2.612,2.986c1.4,0,2.1-.5,2.1-1.481a1.3,1.3,0,0,0-.834-1.177,17.1,17.1,0,0,0-2.768-.975,31.747,31.747,0,0,1-4.015-1.45A7.443,7.443,0,0,1,1.785,10.9,6.412,6.412,0,0,1,.593,6.861,5.814,5.814,0,0,1,1.754,3.29,7.517,7.517,0,0,1,5.029.858,12.708,12.708,0,0,1,9.886,0a12.936,12.936,0,0,1,4.6.8,7.828,7.828,0,0,1,3.532,2.627,7.81,7.81,0,0,1,1.427,4.764h-7.2A3.011,3.011,0,0,0,11.7,6.362a2.028,2.028,0,0,0-1.754-.741,1.929,1.929,0,0,0-1.294.39,1.372,1.372,0,0,0-.437,1.084,1.3,1.3,0,0,0,.85,1.185,18.866,18.866,0,0,0,2.776.982,30.338,30.338,0,0,1,4.015,1.4,7.427,7.427,0,0,1,2.776,2.245,6.3,6.3,0,0,1,1.2,4,5.994,5.994,0,0,1-1.076,3.454,7.416,7.416,0,0,1-3.274,2.549,13.282,13.282,0,0,1-5.372.975,11.423,11.423,0,0,1-7.266-2.183" transform="translate(0 0)" fill="#fff"/>
      <path id="Path_5565" data-name="Path 5565" d="M13.282.063a12.591,12.591,0,0,1,5.091.982,8.087,8.087,0,0,1,3.516,2.83,7.488,7.488,0,0,1,1.279,4.366,7.53,7.53,0,0,1-1.279,4.374,8.127,8.127,0,0,1-3.516,2.822,12.591,12.591,0,0,1-5.091.982H11.388v6.549H3.529V.063ZM12.565,10.37a2.875,2.875,0,0,0,1.918-.577,1.934,1.934,0,0,0,.663-1.551,1.945,1.945,0,0,0-.663-1.551,2.875,2.875,0,0,0-1.918-.577H11.388V10.37Z" transform="translate(23.984 0.428)" fill="#fff"/>
      <path id="Path_5566" data-name="Path 5566" d="M14.851,14.292V16.9h9.161v6.066H6.992V.063h16.7V6.105H14.851V8.569h8.514v5.723Z" transform="translate(47.522 0.429)" fill="#fff"/>
      <path id="Path_5567" data-name="Path 5567" d="M16.429,22.477a11.268,11.268,0,0,1-4.639-4.116,11.631,11.631,0,0,1-1.754-6.424A11.623,11.623,0,0,1,11.79,5.52,11.268,11.268,0,0,1,16.429,1.4a14.021,14.021,0,0,1,6.2-1.4A13.587,13.587,0,0,1,28.3,1.185a11.725,11.725,0,0,1,4.436,3.508,12.1,12.1,0,0,1,2.355,5.45H26.985a4.247,4.247,0,0,0-1.536-2.277A4.461,4.461,0,0,0,22.7,7.025a4.456,4.456,0,0,0-3.368,1.349,4.964,4.964,0,0,0-1.279,3.563A4.939,4.939,0,0,0,19.329,15.5,4.422,4.422,0,0,0,22.7,16.84a4.638,4.638,0,0,0,2.822-.826,4.289,4.289,0,0,0,1.536-2.277h8.108a12.274,12.274,0,0,1-2.355,5.45,11.621,11.621,0,0,1-4.452,3.5,13.792,13.792,0,0,1-5.73,1.193,14.021,14.021,0,0,1-6.2-1.4" transform="translate(68.209 0)" fill="#fff"/>
      <rect id="Rectangle_945" data-name="Rectangle 945" width="7.859" height="22.906" transform="translate(111.223 0.491)" fill="#fff"/>
      <path id="Path_5568" data-name="Path 5568" d="M41.548,22.968H33.736L32.5,19.046H25.1L23.85,22.968h-7.7L24.5.062h8.709ZM26.532,13.316h4.514l-2.261-7.04Z" transform="translate(109.796 0.421)" fill="#fff"/>
      <path id="Path_5569" data-name="Path 5569" d="M36.473,22.969h-16.2V.063h7.851V16.092h8.35Z" transform="translate(137.777 0.426)" fill="#fff"/>
      <rect id="Rectangle_946" data-name="Rectangle 946" width="7.859" height="22.906" transform="translate(181.773 0.491)" fill="#fff"/>
      <path id="Path_5570" data-name="Path 5570" d="M42.7,4.639,34.87,16.42h8.482v6.549h-18V18.392L33.171,6.6H25.842V.063H42.7Z" transform="translate(172.294 0.427)" fill="#fff"/>
      <path id="Path_5571" data-name="Path 5571" d="M36.483,14.292V16.9h9.161v6.066H28.624V.063h16.7V6.105H36.483V8.569H45v5.723Z" transform="translate(194.539 0.429)" fill="#fff"/>
      <path id="Path_5572" data-name="Path 5572" d="M31.857,22.969V.063h9.652A15.241,15.241,0,0,1,48.284,1.49a10.751,10.751,0,0,1,4.569,4.023,11.141,11.141,0,0,1,1.614,6,11.141,11.141,0,0,1-1.614,6,10.751,10.751,0,0,1-4.569,4.023,15.349,15.349,0,0,1-6.775,1.427Zm9.325-6.385a5.439,5.439,0,0,0,3.828-1.318,4.819,4.819,0,0,0,1.442-3.75,4.831,4.831,0,0,0-1.442-3.75A5.443,5.443,0,0,0,41.181,6.44H39.708V16.584Z" transform="translate(216.513 0.428)" fill="#fff"/>
      <path id="Path_5573" data-name="Path 5573" d="M5.159,22.808,3.81,26.987a.292.292,0,0,1-.3.218H.232c-.218,0-.257-.125-.218-.3L5.682,10.56a5.214,5.214,0,0,0,.3-1.746A.2.2,0,0,1,6.165,8.6h4.53c.133,0,.218.047.218.179L17.361,26.9c.047.133.047.265-.125.265H13.525c-.172,0-.257-.047-.3-.218l-1.435-4.226H5.159Zm5.489-3.532c-.561-1.871-1.7-5.317-2.222-7.321H8.387c-.437,1.918-1.481,5.013-2.222,7.321Zm6.845,1.045c0-4.054,3.048-7.453,8.241-7.453.218,0,.522.047.912.047V7.332a.2.2,0,0,1,.218-.218h3.571c.133,0,.179.047.179.179V24.024a15.376,15.376,0,0,0,.133,2.1.237.237,0,0,1-.218.257,14.231,14.231,0,0,1-5.582,1.138c-4.226,0-7.453-2.4-7.453-7.2m9.153-4.054a2.506,2.506,0,0,0-1.045-.133A3.8,3.8,0,0,0,21.547,20.1c0,2.791,1.614,4.007,3.789,4.007a4.562,4.562,0,0,0,1.357-.172V16.267ZM46.566,20.1c0,4.444-2.877,7.414-6.978,7.414-4.834,0-7.017-3.664-7.017-7.329,0-4.007,2.705-7.36,7.064-7.36,4.576.039,6.931,3.438,6.931,7.274m-9.979.047c0,2.479,1.177,4.093,3.048,4.093,1.661,0,2.877-1.435,2.877-4.007,0-2.222-.912-4.054-3.048-4.054-1.614-.047-2.877,1.435-2.877,3.968M52.273,7.114c.218,0,.3.047.3.218v5.8a8.409,8.409,0,0,1,2.4-.3,6.482,6.482,0,0,1,6.8,6.752c0,5.317-4.187,7.937-8.5,7.937a15.411,15.411,0,0,1-4.444-.655.368.368,0,0,1-.179-.3V7.293c0-.133.047-.218.218-.218h3.4Zm1.965,9.067a5.547,5.547,0,0,0-1.661.218v7.672a4.424,4.424,0,0,0,1.053.133,3.907,3.907,0,0,0,4.093-4.272c0-2.526-1.528-3.75-3.485-3.75m12.809,5.013c.133,1.614,1.271,2.963,4.054,2.963a9.22,9.22,0,0,0,3.493-.655c.086-.039.172-.039.172.133V26.34c0,.218-.047.257-.218.343a9.781,9.781,0,0,1-4.358.834c-5.317,0-7.188-3.664-7.188-7.2,0-3.922,2.393-7.492,6.837-7.492,4.272,0,5.972,3.306,5.972,6.144a9.167,9.167,0,0,1-.133,1.918c-.039.133-.086.218-.218.218-.343.039-1.435.125-2.916.125h-5.5Zm3.664-2.744c.912,0,1.31-.047,1.442-.047v-.218a2.278,2.278,0,0,0-2.4-2.222,2.654,2.654,0,0,0-2.705,2.487Zm29.33,3.922c-.608-3.446-1.957-9.114-2.963-13.511-.039-.179-.086-.218-.257-.218H93.11c-.172,0-.3.039-.3.218-1.918,8.5-2.7,11.507-3,13.464h-.047c-.265-1.653-.655-4.007-2.791-13.464-.039-.218-.172-.218-.3-.218h-3.75c-.125,0-.218.086-.172.257L87.4,26.948c.086.172.179.257.351.257h3.4c.218,0,.257-.125.3-.257.912-3.579,2.791-10.767,3.313-13.776h.047c.608,2.963,2.222,10.112,3.048,13.862a.286.286,0,0,0,.3.218h3.485c.133,0,.218-.047.265-.218l4.709-18.088c.039-.218-.047-.265-.218-.265h-3.446c-.218,0-.3.094-.3.218-1.7,8.155-2.355,11.905-2.62,13.472m19.92-2.269c0,4.444-2.877,7.414-6.97,7.414-4.842,0-7.017-3.664-7.017-7.329,0-4.007,2.7-7.36,7.056-7.36,4.576.039,6.931,3.438,6.931,7.274m-9.979.047c0,2.479,1.177,4.093,3.048,4.093,1.661,0,2.877-1.435,2.877-4.007,0-2.222-.912-4.054-3.048-4.054-1.653-.047-2.877,1.435-2.877,3.968m11.983-7.017c-.125,0-.172.039-.172.218a35.4,35.4,0,0,1,.133,3.836v9.761c0,.172.039.257.257.257h3.4c.218,0,.265-.039.265-.218l.039-9.02a5.743,5.743,0,0,1,4.272-1.216c.218,0,.265-.047.265-.218V13.039c0-.172-.047-.211-.218-.211a5.792,5.792,0,0,0-4.491,2.128,5.984,5.984,0,0,0-.3-1.567.307.307,0,0,0-.351-.257Zm18.828,0a.409.409,0,0,0-.39.218c-.608.741-3.228,3.922-4.709,5.66V7.379c0-.179-.125-.218-.257-.218h-3.446c-.218,0-.257.133-.257.218V26.987c0,.218.039.312.257.312h3.446c.218,0,.257-.094.257-.312V21.023c1.357,1.739,3.8,4.966,4.662,6.058.133.125.179.218.351.218H145.2c.172,0,.265-.179.133-.265-1.746-2.136-4.444-5.4-6.1-7.453a.09.09,0,0,1,0-.133c1.092-1.177,4.491-4.92,5.364-5.972.133-.125.039-.257-.179-.257h-3.618Zm6.978,3.313V26.987c0,.179.086.265.257.265h3.446a.234.234,0,0,0,.265-.265V16.446h2.394c.218-.047.218-.047.218-.218V13.351c0-.133-.047-.218-.218-.218h-2.394v-.787c0-1.567.608-2.136,1.653-2.136a6.025,6.025,0,0,1,.873.047c.133.039.218-.047.218-.179V7.293a.345.345,0,0,0-.179-.312,4.538,4.538,0,0,0-1.481-.218,4.473,4.473,0,0,0-4.4,2.659,7.323,7.323,0,0,0-.616,3.189v.429h-1.653c-.133,0-.218.047-.218.218v2.877c0,.133.047.218.218.218h1.614Zm7.929-3.313c-.125,0-.172.039-.172.218a35.4,35.4,0,0,1,.133,3.836v9.761c0,.172.039.257.257.257h3.4c.218,0,.265-.039.265-.218l.039-9.02a5.743,5.743,0,0,1,4.272-1.216c.218,0,.265-.047.265-.218V13.039c0-.172-.047-.211-.218-.211a5.779,5.779,0,0,0-4.491,2.128,6.324,6.324,0,0,0-.3-1.567.307.307,0,0,0-.351-.257Zm23.015,6.97c0,4.444-2.877,7.414-6.97,7.414-4.842,0-7.017-3.664-7.017-7.329,0-4.007,2.7-7.36,7.056-7.36,4.576.039,6.931,3.438,6.931,7.274m-9.979.047c0,2.479,1.177,4.093,3.048,4.093,1.661,0,2.877-1.435,2.877-4.007,0-2.222-.912-4.054-3.048-4.054-1.614-.047-2.877,1.435-2.877,3.968m11.546,6.837c0,.179.047.265.265.265h3.438c.179,0,.265-.086.265-.218V17.187a3.506,3.506,0,0,1,2.355-.873c1.481,0,2.222.912,2.222,2.612v8.061c0,.179.086.265.3.265h3.4c.218,0,.265-.086.265-.265V18.536c0-4.576-2.573-5.707-4.756-5.707a6.2,6.2,0,0,0-4.007,1.435,3.723,3.723,0,0,0-.218-.912c-.039-.133-.133-.218-.351-.218H180.5c-.172,0-.218.086-.218.218.047.608.133,2.089.133,3.048V26.987Zm22.274-2.612c0-.172-.086-.218-.218-.218a6.75,6.75,0,0,1-.959.133c-1.177,0-1.528-.569-1.528-1.832V16.4h2.659c.133-.047.218-.047.218-.218V13.3c0-.172-.039-.218-.218-.218H199.9c0-1.4.047-3.048.133-3.922,0-.218-.086-.218-.218-.172l-3.313.429a.409.409,0,0,0-.265.265,29.006,29.006,0,0,0-.257,3.446H194.23c-.218,0-.257.039-.257.257v2.791c0,.172.039.218.218.265h1.7v7.017c0,2.83,1.435,4.054,3.922,4.054a7.437,7.437,0,0,0,2.526-.4.328.328,0,0,0,.218-.351Z" transform="translate(0.002 42.964)" fill="#fff"/>
    </g>
  </g>
</svg>
